<?xml version="1.0" encoding="utf-8"?>
<!-- Generator: Adobe Illustrator 19.2.1, SVG Export Plug-In . SVG Version: 6.00 Build 0)  -->
<!DOCTYPE svg PUBLIC "-//W3C//DTD SVG 1.1//EN" "http://www.w3.org/Graphics/SVG/1.1/DTD/svg11.dtd">
<svg version="1.1" id="Capa_1" xmlns="http://www.w3.org/2000/svg" xmlns:xlink="http://www.w3.org/1999/xlink" x="0px" y="0px"
	 viewBox="0 0 400 158" style="enable-background:new 0 0 400 158;" xml:space="preserve">
<style type="text/css">
	.st0{fill:#CC0606;}
	.st1{clip-path:url(#SVGID_3_);}
	.st2{fill:#C26E3C;}
	.st3{fill:#BE6A30;}
	.st4{fill:#E3B69C;}
	.st5{fill:#F2D3BF;}
	.st6{fill:#E4BFA9;}
	.st7{fill:#9F7151;}
	.st8{fill:#BC4F38;}
	.st9{fill:#38261A;}
	.st10{fill:#FFFFFF;}
	.st11{fill:#F0F0F0;}
	.st12{fill:#00335D;}
	.st13{fill:#D5A685;}
	.st14{fill:#CF9B9A;}
	.st15{fill:#A97976;}
	.st16{clip-path:url(#SVGID_5_);fill:#FAEEDF;}
	.st17{fill:#301E0F;}
</style>
<g>
	<g>
		<g>
			<g>
				<circle id="SVGID_1_" class="st0" cx="81" cy="78.4" r="68.7"/>
			</g>
			<g>
				<defs>
					<circle id="SVGID_2_" cx="81" cy="78.4" r="68.7"/>
				</defs>
				<clipPath id="SVGID_3_">
					<use xlink:href="#SVGID_2_"  style="overflow:visible;"/>
				</clipPath>
				<g class="st1">
					<path class="st0" d="M59.1,109.7c0,0-3.8,0.9-6.3,5s-1.6,0.2-3.6,2c-1.9,1.8-3.2,2.4-4.9,3c-1.8,0.6-2.8,2.1-3.8,2.8
						c-1.1,0.7-2,0.6-4,1s-5.7,0.8-6.4,4.5c-0.7,3.8,0,24.4,0,24.4h104l5.9-38c0,0-4.5-1.3-9-2.3c-2-0.5-3-0.2-4.7-0.6
						c-1.9-0.5-2.7-1.2-3.6-1.5c-3.1-0.8-1.2,1.2-2,0c-1.5-2.2-4-1.5-5.5-2c-1.4-0.5-3.3-2.4-4.1-2.9s-1.3-0.1-1.3-0.1l-0.2-0.6
						L59.1,109.7z"/>
					<path class="st2" d="M84.5,151.1c-0.4,0-2.8-3.8-6.5-4.6c-3.6-0.9-2.3-0.7-4.9-0.5s-5.4-1.7-6-3.2s-1.9-3-1.9-3s-0.9,3.5,0,4.5
						s2.6,4,6,3.2c3.4-0.9,4-1.8,7.1,0C81.3,149.2,84.5,151.1,84.5,151.1z"/>
					<path class="st3" d="M119.7,119.7c0,0-5,6.2-5,9.4c0.1,6-1.9,8.6-1.9,8.6s4-1.9,4.9-4.1c0.9-2.2,1.6-3.5,2-4.4
						c1.2-2.6,3.5-3.6,4.3-4.8c3.1-4.4-0.6-8.1-0.6-8.1s0.5,5.7-1.5,7c-3.3,2.1-3.9,4-3.9,4s-1.2-0.6-0.5-2.7
						C118.4,122.5,119.8,120.6,119.7,119.7z"/>
					<path class="st3" d="M125,127.8c-0.1,0.2,5.8-4.1,5.9-11.4c0.1-2.2-2.2-2.6-2.2-2.6S128.2,122.1,125,127.8z"/>
					<path class="st3" d="M136,118.7c0,0-2,7.2-4.3,10.4s-8.7,8.6-12.3,11.3s-0.9-1.4,2.2-3.8c3.1-2.4,11-11.7,11.7-14.4
						C134,119.5,134.1,115.3,136,118.7z"/>
					<path class="st3" d="M100.2,150.7c0,0,8.4-3,11.9-4c2.8-0.8-4-2.6-1.1-3.5c2.9-1,7.4,1,10.8-5.4c3.4-6.3,3.1-10,3.1-10
						s-2.5,10.5-9.6,12.2c-7.2,1.7-10.3-0.7-9.6,1.7c0.8,2.4,4.8,2.5,2.2,3.9s-11.7,5.2-11.7,6.1
						C96.1,152.6,100.2,150.7,100.2,150.7z"/>
					<path class="st3" d="M59.3,127.4c0.1,0.6-3.4-8.9-5.5-3.5c-2,5.4-2.3,6.2-3.9,4.8c-1.6-1.3-2.3-5.1-4.1-2
						c-0.8,1.3-1.7,5.5-1.6,7c0.1,1.2,0.3,1.2,0.3,1.2s1.9-1.4,2-1.2c0.2,0.5-0.1,2.1,0.1,2.4c1.7,2.2,3.5,6.6,8.9,6
						c5.3-0.6,8-4,8.9-1.5s1.4,3.3,1.4,3.3s-4.5-1-6.9-0.7s-7.3,0.7-9.2-0.1c-1.9-0.8-5.1-4.9-5.9-8.2s-0.3-6.7-3.4-6.8
						c-5-0.2-5.5,0.9-7.7,2.8c-2.3,1.9-1.6,7.8-1.6,7.8l-1.5-0.4v-10.1c0,0,0-1.2,1.4-2.9c1.9-2.3,5.7-1.7,8.4-2.6
						c1.5-0.4,1.3-1.8,2.6-2.5c1.3-0.7,4-0.8,4.8-1.6s1.1-2.3,3.6-2.6s1.1-0.6,2.6-2.1s8.5-6.9,8.5-6.9S58.5,123.1,59.3,127.4z"/>
					<path class="st2" d="M60.2,142.8c0,0-1.7,0.6-3.7,0.2c-3.1-0.5-7-2.8-7.9-4.7c-1.6-3.2-0.8-4.4-0.7-7.1c0.2-2.7-0.9,0-1.1,1
						s-0.2,2.2-0.2,2.2s-0.3,4.1,1.2,5.1C51.5,142.1,56,144.9,60.2,142.8z"/>
					<path class="st4" d="M59.8,36.4l18.8-7.2l12.3-1l6.3,2.7L109,49.3l2.9,16.2l0.4,1.6l1.9-2.6c0,0,1.4-1.1,1.7,0.1
						s0.5,5.1,0.1,7.4s-0.8,6.9-0.4,9c0.5,2.4,0.4,6.1-3.6,6.7c0,0-0.2-0.5-0.3,1.2c-0.1,1.6-0.4,9.3-2.4,11.7c0,0-1,1.8,0,7.9
						c1,6.2,1.5,11.8-1.3,19.2s-9.4,13.1-11.7,15.1c-2.2,1.9-5.8,5.1-6.8,7.6c0,0-3.4,0.3-6.2-2.3c-2.8-2.6-4.9-1.2-7.9-3.3
						c-3-2-5.4-3.3-5.4-3.3l-8.6-10.9l-2-13.9l-0.2-7.7l-8.5-15.9l-2-13.5l-4.3-19.4l5.1-20.6L59.8,36.4z"/>
					<path class="st5" d="M113.6,80.9c0,0-0.2,2.1,0.5,3s0.7,1.9-0.6,2.8c-0.6,0.4-1.2,0.4-1.2,0.4s0.4-2.1,0.2-3.8
						c-0.2-1.7-0.6-3-0.4-3.4C112.6,79.1,113.7,79.2,113.6,80.9z"/>
					<path class="st6" d="M89,87c0,0,0.8,4.1-3.3,4c-2.1,0-2.1,1-2.6,2s-3.4,1.5-5.3,0.5c-3.1-1.6-2-5-1.9-6.9s0.3-8.4,0.1-9.7
						c-0.2-1.2,0.5-5.7-2.6-7.4c-3-1.7-8.3-3.7-9.4-7s0.4-7,0.1-10c-0.4-3-1.1-3.2-1.8-7.8c-0.7-4.6,3.9-3.9,7-4.5
						c3-0.6,5,0.4,9.3-1.6c1.6-0.7,4.4-1.4,7.8-1.4c1.8,0,2.5-1.2,4.4-1.7c0.3-0.1-0.4,0.5,0.4,0.5c0.2,0,1.3-0.4,1.7-0.7
						c0.7-0.5-0.1,1.4,0.4,2c0.2,0.2,1.5,0,1.5-0.7c0-0.9,0.3,1.5,1.6,3.5c1.1,1.8,3.2,3,3.6,4.9c1.7,7.7,2.2,12.2,5,14.2
						c2.8,2.1,5.5,13.6,3.7,14.5s-2.8,1.2-1.5,3.5c2,3.6,3.8,15.7,3.3,19c-0.8,4.5-5.4,12.9-9.3,16.7c-3.9,3.8-10.3,11.2-15.7,11.5
						c-8.3,0.5-13.4-6.2-9.8-9.9c0,0,1.5-1.8,6.7-3.9c3.1-1.2,1.7-3.3,4.4-4.6s8.6-7.5,8.6-7.5s1.4-0.9-1.2,0.2
						c-2.6,1.1-10.2,2.3-12.4,1.9c-1.5-0.2-3-1.2-4.6-1.1c-2.2,0.1-1.8-1.2-1.8-1.2s0.5-2,3-2.1c2.2-0.1,4.6-1.4,5.7-2.6
						C86.2,91.3,91.3,91.6,89,87z"/>
					<g>
						<path class="st5" d="M105.8,78.5c0,0-2.1-1.6-5.6,1.2c-3.5,2.8-3.9,2.6-6.3,2.4c-2.4-0.1-5.2-1.4-6.5-0.3
							c-1.6,1.3-0.6,2.2,2.3,2.4c3.3,0.3,4.1,1.2,5.3,3c1.9,3,9.6,7.9,11.7,4.2C108.8,88,110,81.5,105.8,78.5z"/>
						<path class="st5" d="M98.8,75.5c0,0-1.6-1.1-3.7-0.5c-2,0.5-3.3,0.9-3.3,0.9S94.7,77.4,98.8,75.5z"/>
						<path class="st7" d="M113.9,73c0,0,1.5,4-0.6,6.5c0,0-0.3-1.2,0-1.7s0.9-2.5,0.5-3.8C113.8,74,114,72,113.9,73z"/>
						<path class="st5" d="M79.8,71.8c-0.5,0-0.7,0.5-0.8,1.5c-0.1,1.2-0.2,9.8,1.1,10.3c1.1,0.5,1.9,1,1.5-2.5
							c-0.1-1.2-0.6-4.8-1-7.3C80.4,72.3,80.2,71.8,79.8,71.8z"/>
						<path class="st5" d="M80.3,70c-1.1-0.6-2.2-1.2-3.1-1.9c-1.5-1.1-4.3-2.8-4.4-6.3c-0.1-3.6-0.1-9.2,2.9-12.6
							c9.1-10.2,17-5,20.1-1.6c3.1,3.4,6.2,8.4,4,13.1c0,0-0.2,1-1.7,0.7C95.7,61,89.7,61.7,87,64c0,0-0.4,0.9-1.6,1s-2.7,0-3.1,1.5
							C81.9,68.2,82.1,70.9,80.3,70z"/>
						<path class="st8" d="M64.5,100.4c0,0-0.3,1.3,1.3,2.2c1.6,0.9,1.9,2.2,0.8,1.8s-3.1-0.3-2.6,1s1.5,3.5,1.8,4.4s-0.1,3.6-1,2
							c-0.8-1.6-2.9-6.9-3.4-8.5c-0.5-1.6,0.4-1.5,1.5-1C64.1,102.6,63.1,102.4,64.5,100.4z"/>
					</g>
					<path class="st7" d="M84.4,73.8c0,0-1.9-0.4-0.8-1.7c1-1.4,2.5-1.9,4-2.3c2.2-0.6,3.3-0.6,4.6-0.7c2-0.1,4.9,0.1,6.4,1
						c2.6,1.5,1.2,2.2,0.2,2.1c0,0,0.4,0.4,1,0.7c0.7,0.4,2.7,1.2,1.5,1.6c-0.6,0.2-0.3,0.9-0.4,1.1c-0.4,0.6-1.2,0-1.2,0
						s-2-1.8-7.4-1.3c0,0-5.4,1.1-1.6,2.3c3,1,6.3,0,6.3,0s-2.1,1.9-5.8,1.1c-1-0.2-3.5,0-5.4-0.8c-0.9-0.3-2-1.3-1.1-1.6
						C85.6,74.8,84,75.7,84.4,73.8z"/>
					<path class="st7" d="M115.8,73.3c0,0,0.6-5,0.6-5.7c0-2.1-0.5-5.4-2.1-3.1c-1.7,2.3-1.5,2-2.3,3.1s-0.2,1.7,0,3.5
						c0.3,1.8,0.4,5.6-0.6,7.1c0,0,0.6-2.5,0.4-4.3c-0.2-1.8-2.1-11.4-3.7-14.6c-1.6-3.3-3.2-8.1-4.4-11.4
						c-1.2-3.4-6.6-12.6-7.2-14.3l-0.7,0.5l-2.3-2.7c0,0-1-0.7-1.2,0c-0.3,0.7-1.7,0.4-1.7-0.3s-1-0.8-1.4,0s-1.9,2.1-1.9,2.1v-1
						c0,0-0.6-0.3-1.1,0.4c-0.4,0.6-2.4,0.7-5.2,1.3c-2.8,0.5-7.4,1.9-8.9,1.5c-1.6-0.4-4.8-0.8-6.4,0.3s-0.6,2.7-2.5,3.3
						c-2,0.5-1.9-0.7-4.3-0.1c-2.5,0.6-8.2,1.1-8.4,5.7c-0.3,4.6-0.3,14.5-1.8,18.4s-2.5,4.7-2.5,7.6s0.7,4.3,0.9,6.1
						c0.2,1.7-5.3-3.9-4.6-2.6c0.3,0.6-1.4,1.8,0.4,6c0.9,2.2,2.1,2.9,3.2,12.1c0.4,3.5,4.4,2.1,5,3.4l0.8,3.7c0,0,0.8,6.2,5.4,10.8
						c0,0,3,3.4,2.4,6.6c-0.5,2.7-0.6,6.1-0.6,6.1s0.5,3.4,0.6,4.1c0.1,0.6,0.5,4.3,1.5,6.5c0.1,0.3,1.7,3.3,3.7,4.5
						c1.4,0.8,2.2,2.2,3.2,3.2c1.1,1,1,0.6,2.8,1.4c1.8,0.7,4.8,2.1,3.8,1.3s-3.7-2.1-2.2-3.1s2.9,0.5,3.8-2.1s-0.8-3.2,2-6.5
						c4.2-5,10.2-6.5,9.6-7.2c-1.7,0.4-1.8,0.4-4.2,0.7c-2.4,0.4-4.8-0.1-7.4-3c-1.8-1.9-2.6-3.8-3.2-6.1s-0.5-2.5-0.1-3.6
						c0,0,0.8-1,0.5-1.5s-1.1-0.9-1.2-1.3c-0.2-0.4,0.7-0.3,2,0.1c1.3,0.5,4.1,1,4.6,0.7s-2.7-0.8-2.7-1.9s0.7-1.7,2-2
						c1.3-0.4,3.1-1.8,3.1-1.8s-2,0.1-3.6-0.1c-1.6-0.2-2.8-0.3-3.8-1s-0.9-2.2-0.6-2.3c0.3-0.1,0.7-0.1,1,0.3l0.5,0.5
						c0,0-0.2-1,0.4-1.1c0.5,0,1-0.2,1.4,0.2c0.4,0.4,0.9,0.8,0.9,0.8s-0.2-0.9,0.5-0.9s2.1-0.3,2.4-0.3s-0.1-0.6-1-0.6
						c-1,0-2.3,0.1-3.1-0.1c-0.8-0.2-0.8-1-2-0.9s-4.1,0.8-4.6,0.5c-0.5-0.4,0.3-0.9,1.2-1.1c0.9-0.2,2-1.3,2.5-1.9
						c2.4-2.9,5.7-1.3,6.4-2.2c0,0,0.8-0.5-0.4-0.5c-1.2,0-3.7-1.9-3.6-4.4s0.4-6.3,0.3-8.4c0-2.1,0-8.6-2.7-10.2
						c-0.8-0.4-2-1.1-2.5-2.3c-0.6-1.1-4.4-2.2-5.3-2.3c-0.8-0.2-2.6-1.5-3.1-2.1c-4.3-4.9-3-10.3-2.7-11.2c0.2-0.9,0.5-4.7,0.3-6
						c-0.6-3.5-1.2-5.1-0.5-6.1s2.9-0.7,2.9-0.7s2.7-0.2,4.5-1.7s2.1-1.9,4.1-1.6c2,0.2,2.7,1.5,5.6,0.5s4.2-1.5,5.7-1.7
						s4-0.5,5.4-0.6c1.4,0,2.5-1.9,3.1-2.3c0.6-0.4,0.8,0.3,0.8,0.3s0.1,0.5-0.6,1.9c1.7-0.1,1.8-1.6,1.8-1.6s0.5-0.1,0.5,0.9
						c0,0.9,0.1,1.3,0.1,2.5c1.3,0,1.1-1.3,1.4-2.3c0.5,0.4,0.5,3.5,1.7,5.3s4,2.9,4.6,5s0.4,3.4,1.5,6.5c1.2,3.1,2.3,5.7,3.7,7.2
						s1.9,3.7,2.2,5.7s1.3,9.8,1.5,11.2c0.2,1.4,0.8,2.8,1,4.2c0.2,1.4,1,5.7,1,5.7s-0.3-6.4,0.6-7.9c1-1.5,0.7-2.1,0.5-4
						s-0.8-3.9,0-5s1-1,1.2-0.6s0.3-0.4,0.5-1.2c0.2-0.8,0.2-1.8,0.8-1.2C116.2,66.3,116,72,115.8,73.3z"/>
					<path class="st6" d="M68.2,74.4c0,0-6.2-0.1-7.9,0.5c-1.6,0.6,2.5-2.3,6.2-1.5C66.5,73.4,69.7,73.9,68.2,74.4z"/>
					<path class="st5" d="M50.5,94.5c0,0-1.4-2.8-1.6-4.5s-0.5-2.5-1.5-1.4s-2.8,4.6,0.7,6.2C48.1,94.8,50.9,95.7,50.5,94.5z"/>
					<path class="st9" d="M82.2,65.5c0,0,0.1,1.6,2.2,3.3c0,0,0.4,0.6,2.1,0c1.7-0.6,8.3-3.3,13.1-3.1c0,0,2.5,0.1,4.1,0.6
						c0,0-3.2-2.2-5.2-3.5c-2.1-1.3-4.2-0.8-5.9-0.4s-3.3,0.7-3.7,0.9c-0.3,0.1-1,0.3-1.6,1c-0.4,0.5-0.7,1.2-1.1,2.3
						c0,0,0.1-1.8,0.1-2.2c0,0-0.8,1.9-1,3c0,0-0.3,0.2-0.4-0.6c0,0-0.4-1.8-0.6-2.2c0,0-0.2,0.9,0.1,2.3c0,0-0.4,0.3-1.4-1.2
						C82.8,65.8,82.2,65,82.2,65.5z"/>
					<path class="st9" d="M101.3,65.7c0,0,0.2,0.3,0.3,0.4c0,0.1,1.8,0.2,1.8,0.2s-0.1-0.3-0.5-0.4
						C102.7,65.8,101.3,65.7,101.3,65.7z"/>
					<path class="st9" d="M101.6,66.6c0,0,0.3-0.2,0.6-0.2s1-0.1,1.2,0.1s0,0.1-0.2,0.1s-1.1,0-1.3,0
						C101.7,66.7,101.4,66.7,101.6,66.6z"/>
					<path class="st9" d="M102.2,66.9c0,0,0.1-0.2,0.4-0.2c0.3,0,1-0.1,1.2,0.2c0,0,0.1,0.1-0.1,0.1c-0.3-0.1-0.8-0.1-1-0.1
						C102.5,66.9,102.1,67.1,102.2,66.9z"/>
					<path class="st9" d="M103,67.2c0,0,0.9,0,1.2,0.4l-0.1,0.1c-0.1,0-0.5-0.3-0.8-0.3C103.1,67.3,103,67.3,103,67.2z"/>
					<path class="st9" d="M70.4,68.1c-0.2-0.4-0.3,0-0.3,0c0.2,0.6,0.2,1.5,0.2,1.5c-0.8-1.3-2.3-2.2-3.9-2.5
						c-1.1-0.2-3.9-0.2-6.1,0.1c-1.5,0.2-1.3,0.1-4.1,1.3c-0.4,0.2-0.8,0.4-1.1,0.6c-3.7,2.2-2.1,3.6-2.1,3.6s0.7-1.6,3.3-1.4
						c0.1,0,0.1,0,0.2,0c1,0.1,2.2,0.3,3.8-0.2c1.3-0.4,3.8-0.6,5.2-0.3c1.7,0.3,3.7,0.5,4.3,0.4c0.6,0,1,0.2,1,0.2
						C71.4,70.5,70.4,68.1,70.4,68.1z"/>
					<path class="st9" d="M70.9,75.2c0,0-1.6-1.3-3.5-1.8c0,0-0.2-0.1-0.3-0.1c0,0,0.1-0.1,0.2-0.2c0,0,0.1-0.2-0.7-0.2
						c0,0-1.8,0-3.2,0.3c-1.3,0.2-3,0.4-4.1,1.1c-1,0.7-2.1,1.5-2.4,2.5c0,0,0,0.2,0.2,0c0.1-0.2,1.6-1.9,3-2.5s3.3-0.7,4.2-0.8
						C65.3,73.5,67.9,73.4,70.9,75.2z"/>
					<path class="st9" d="M70,75.8c0,0-0.7,0.1-1.1,0.1s-2.4,0.8-4,1c-1.6,0.1-3.1,0.6-3.7,0.8c-0.6,0.2-3.3,0.3-3.7,0.1
						c0,0,0-0.1,0.3-0.3c0.4-0.3,1.9-1.7,2.4-2.1c0.5-0.3,1-0.8,2.9-1.2c1.9-0.4,2.5-0.2,3.8,0s1.9,0.6,2.6,0.9
						C69.4,75.1,70.5,75.6,70,75.8z"/>
					<path class="st10" d="M61.3,75.6c0,0-0.1,1.2,0.5,1.5c0,0-1.1,0.1-1.5,0s-0.5-0.1-0.1-0.5C60.7,76,61.3,75.6,61.3,75.6z"/>
					<path class="st10" d="M65.1,74.4c0,0,0.1,0.6-0.6,0.6s-0.6-0.5-0.6-0.5S64.4,74.3,65.1,74.4z"/>
					<path class="st10" d="M64.9,75.4c0,0,0,0.7-0.5,0.7s-0.4-0.7-0.1-0.7C64.6,75.4,64.9,75.2,64.9,75.4z"/>
					<path class="st10" d="M66.2,74.5c0,0,0.4,1.4-0.3,2c0,0,0.5,0,1-0.3s0.7-0.3,1-0.4c0.3-0.2,0.3-0.3,0.3-0.3
						S67.5,74.6,66.2,74.5z"/>
					<path class="st9" d="M70.5,74c-0.7-0.1,0.1,0.4,0.1,0.4c0.4,0,0.7,0.2,0.9,0.4c0.4,0.3,0.5,0.7,0.5,0.7
						c0.1,0.2,0.1,0.3,0.1,0.4s0,0.3-0.4,0.5c-0.1,0-0.1,0.4,0.4,0.1c-0.1,0.3-0.2,0.6-0.3,0.9c0,0.1-0.1,0.2-0.1,0.2
						c-0.2,0.1-0.4,0.2-0.5,0.2c-0.3,0.1,0,0.6-0.9,1.7l0,0c-0.1,0.1-0.2,0.3-0.3,0.4c-0.7,1-3.3,3-3.3,3c3.3-1.5,5.4-4.3,5.9-6.5
						C73.1,74.4,70.5,74,70.5,74z"/>
					<path class="st9" d="M70.5,77.7c0,0-1,0.1-2.2,1.2c-0.8,0.8-4.3,2.4-6.5,2.6c0,0,2-0.4,5.2-2.4C68.7,78,69.7,77.5,70.5,77.7z"
						/>
					<path class="st9" d="M59.2,80.2c0,0-1.9,0.1-2.8-0.4c0,0-0.2,0.5,1,0.6C58.5,80.5,59,80.6,59.2,80.2z"/>
					<path class="st9" d="M86,73.8c0,0,1.4-2.3,5-3.2c3.6-0.9,5.9,0.4,6.8,0.9c0.8,0.5,2,1.2,2.6,1.2s0.7-0.2,0.8,0.1
						c0.1,0.2,0.2,0.3,0.4,0.3c0.3,0,0.4,0.3-0.7,0.2c-1.1-0.1-4.1,0-5.8,0.2s-5.8,0.3-6.7,0.4c-1,0.1-1,0-0.9,0.3
						C87.6,74.3,85.4,74.3,86,73.8z"/>
					<path class="st11" d="M88.6,72.8c0,0,0.5-0.6,0.9-0.8c0.4-0.2,0.7-0.6,0.7,0c-0.1,0.6,0.1,1.1,0.4,1.2c0,0-0.6,0.1-0.9,0.1
						c-0.3,0-0.1-0.4-0.5-0.4C88.6,73,88.4,73.1,88.6,72.8z"/>
					<path class="st11" d="M93.8,71.7c0,0-0.6-0.3-0.9,0.1c-0.2,0.4,0.4,1,0.9,0.5C94.3,71.7,93.8,71.7,93.8,71.7z"/>
					<path class="st11" d="M95.7,71.8c0,0-0.2,0.9-0.7,1.1c0,0,1.6,0.1,2.1-0.2c0,0-0.1-0.1-0.4-0.3C96.4,72.2,95.8,71.5,95.7,71.8z
						"/>
					<path class="st9" d="M86.8,71.8c0,0,0.2-0.4,0.4-0.5c0,0,0-0.2-0.4,0s0.5-0.5,2.5-1.2s8.9-2.3,10.9,1.1c0,0,0.2,0.4-0.7-0.2
						c-0.8-0.6-2.3-1.8-5.7-1.4c-3.3,0.4-5.4,1.2-6.8,2.3C87,71.8,86.6,72.1,86.8,71.8z"/>
					<path class="st9" d="M84.9,73.1c0,0-1,0.3-0.8,1.5c0,0,0,0.7,1.2,0.8c0,0,0-0.1-0.3-0.3c-0.3-0.3-0.8-0.5-0.4-1.2
						C84.9,73.1,85.3,73.1,84.9,73.1z"/>
					<path class="st9" d="M62.2,75.1c0,0-2,0.2-3.5,1.6l-1.2,1.1c0,0,0.1,0.7-0.2,1.3c-0.3,0.5,1.9-0.5,2.5-1.3
						C60.3,77.1,60.6,76.1,62.2,75.1z"/>
					<path class="st9" d="M93.8,71.1c0,0,2.2,0,3.3,1.5c1.2,1.5,3.7,1.5,3.7,1.5s-0.5-0.6-0.7-1.1C100,72.5,96.9,70.5,93.8,71.1z"/>
					<path class="st9" d="M86.7,75.4c0,0,1.1,0.6,1.9,0.5c0.8-0.1,1.3-0.2,1.8,0s2.4,0.7,3.1,0.7c0.8,0,2.6-0.3,3.1-0.4
						s1.1-0.2,0.3,0.2c-0.8,0.5-1.7,0.8-3.4,0.7c-1.7,0-2.2-0.6-3.6-0.7c-1.4-0.2-2.3-0.2-2.7-0.4C86.8,75.9,85.9,75,86.7,75.4z"/>
					<path class="st9" d="M72.9,73c0,0,2.6,0.1,2.4,3.9C75.3,76.9,75.2,74,72.9,73z"/>
					<path class="st9" d="M75.1,85.9c0,0-0.4,1.4-0.3,2.4c0,0-0.1,0.3-0.4,0s-0.5-0.5-0.7-0.6s0.2-0.1,0.4-0.4
						c0.2-0.3,0.5-0.6,0.6-1C74.8,86,74.9,85.8,75.1,85.9z"/>
					<path class="st9" d="M71.4,87.8c0,0-3.2,3.3,0,5c0,0,0.4,0.4-0.5,0.2c-0.8-0.2-1.6-1.4-1.6-2.2C69.4,90,70.5,87.6,71.4,87.8z"
						/>
					<path class="st12" d="M69.6,88.9c0,0-0.4,0.7-1.1,1.4c-0.7,0.7-1.2,1.2-1.4,1.5c0,0-0.2-0.4,0.4-0.9c0.5-0.5,0.7-0.6,1.1-1.1
						C68.9,89.5,69.1,89,69.6,88.9z"/>
					<path class="st9" d="M72.7,93.5c0,0,0.9-0.2,1.5-0.6s1.3-0.7,1.9-0.2c0,0,0.5,0.3,0.7,0.5c0.2,0.3,0.2,0.5,0.2,0.5
						s-0.7-0.6-1.1-0.7s-1.4,0-1.9,0.5c0,0,0.4,0.1,0.8,0.1s0.5,0,0.5,0s-0.2,0.1-0.7,0.2C74.1,93.7,73.3,93.8,72.7,93.5z"/>
					<path class="st9" d="M77.8,93.9c0,0,1,0.6,3.2,0.4c0,0,0.3,0.1-0.2,0.2s-1.8,0.2-3-0.3C77.8,94.2,77.5,93.9,77.8,93.9z"/>
					<path class="st9" d="M82.3,93.9c0,0,0.8-0.1,1.4-0.7v-0.3c0,0-0.3,0.5-1.2,0.8C82.5,93.7,82.2,93.7,82.3,93.9z"/>
					<path class="st9" d="M85.4,92.4c0,0,1-0.9,1.7-1.2c0.7-0.3,1.9-1.1,1.8-2.1c0,0-0.1-0.2-0.2,0.2c-0.1,0.4-1,1.5-2.7,1.7
						s-2.5,0.8-2.3,1.3c0,0,0.2,0,0.4-0.3c0.3-0.3,1.1-0.7,1.7-0.7C85.8,91.4,85,92,85.4,92.4z"/>
					<path class="st5" d="M87.4,85.2c0,0,2,1.2,1.3,3.6s-3.4,2.4-4.5,1.7c-1.1-0.7-0.8-2.2,0.4-3.3c1.1-0.9,2.3-0.2,2.3-1
						C87.1,85.2,85.9,84.2,87.4,85.2z"/>
					<path class="st9" d="M87.7,85.5c0,0,1,0.9,1,1.7c0,0,0.3,0.1,0.3-0.2c0,0-0.1-0.6-0.4-1C88.3,85.6,87.8,85.2,87.7,85.5z"/>
					<path class="st7" d="M89,86c0,0,2-0.8,3.5,0.9c1.5,1.7,1.5,2.6,5.5,4.2c0.7,0.3,2.3,3.1,1.3,5.5s-0.1,3.9-0.2,5.1
						c-0.1,1.2-1.3,1.2-1.6-0.6c-0.2-1.8,0.7-6,0.4-7.2c-0.4-1.2-2.9-3.4-4.6-4.5C91.5,88.3,89.9,88.3,89,86z"/>
					<path class="st9" d="M89.9,86c0,0,1.4-0.6,2.4,0.7c1.1,1.3,1.8,2.4,3.4,3.1c1.6,0.7,2.7,1.1,3,1.8c0.3,0.8,0.4,1.1,0.4,1.1
						s-0.6-1.1-1.9-1.7c-1.3-0.7-3-1.3-3.9-2.5c-1-1.2-1.9-2.1-2.6-2.2C90.7,86.3,90,86.3,89.9,86z"/>
					<path class="st9" d="M82.6,97.8c0,0-2,0.9-3-0.1C79.6,97.7,81.1,98.1,82.6,97.8z"/>
					<path class="st13" d="M72.1,79.6c0,0-0.6,5.1-2.3,8c-1.7,2.9-1.7,3.8-1.1,5.4c0.6,1.7-0.7,4.8-2,5.8c-1.3,0.9-1.3-0.4-1.3-0.4
						s-2,2.4-0.7,3c0.7,0.4,0.3-0.6,1.5,0.3s2.3,1.7,3.5,3.5c1,1.6,2.2,3.2,2.2,3.2s-3.5-0.7-5.1-2.5c-1.7-1.8-2.6-1.4-2.6-1.4
						s-0.4,0.1,0.3,1c0.6,0.8,0.8,1.2,0.9,1.5c0.7,1.5,4.2,7.4,1,5.6c0,0-2.3-1.8-3.2-2.7c-3.1-3.4-3.8-4.5-5.5-7.7
						s-3.5-11.5-1.3-15.8c2.1-4.2,6.7-3.6,8.6-4.5c-1.6,1.2-0.2,1.6,0.1,1.6C66.8,84,69.9,82,72.1,79.6z"/>
					<path class="st5" d="M63.5,85.2c3,0,4.8-2.5,5.5-0.3s0.1,4.9-1.7,7c-2.4,2.8-3.1,5.5-5.7,3.5c-2.6-1.9-3.3-3.7-3.2-5.9
						C58.6,86.8,59.9,85.2,63.5,85.2z"/>
					<path class="st14" d="M80.9,100.3c0,0-1.3-0.2-2.5-0.3c-1.2-0.1-2.2-0.2-5.4,0.7c-3.2,0.9-4.1,1.2-5,1.1c0,0,2.8,5.5,6.5,7.3
						s4.6,1.9,8.8,1.1c3.7-0.7,4.7-0.8,6.3-2.1c2.6-2.2,2-4.2,3.7-6.3c0.8-1,1.3-2,1.6-2.6c0.2-0.6,0.2-1.1-0.9-0.5
						c-2.3,1.2-4.6,0.3-6.5,0c-2-0.2-3.6,0-5,0.9C81.3,100.4,80.9,100.3,80.9,100.3z"/>
					<path class="st15" d="M70.9,106.5c1.5,2,5.4,4.1,6,4.2c0.9,0.2,1.4,0.3,2.2,0c-1.8-0.4-2.8-1.5-2.9-1.7
						c-0.7-0.8,0.6-1.4,1.9-1.8c0.3-0.1,0.7-0.3,1.1-0.5c0.1,0,0.2-0.1,0.3-0.1c1-0.5,1.8-1.2,1.8-1.2s-2,0.1-3.6-0.1
						c-1.6-0.2-2.8-0.3-3.8-1s-0.9-2.2-0.6-2.3c0.3-0.1,0.7-0.1,1,0.3l0.5,0.5c0,0-0.2-1,0.4-1.1c0.5,0,1-0.2,1.4,0.2
						c0.4,0.4,0.9,0.8,0.9,0.8s-0.2-0.9,0.5-0.9s2.1-0.3,2.4-0.3s-0.1-0.6-1-0.6c-1,0-2.3,0.1-3.1-0.1c-0.8-0.2-0.4-0.7-1.6-0.6
						s-4.3,0.9-4.8,1.2c-1.8,0.9-3.5-0.6-3.5-0.6S67.9,102.4,70.9,106.5z"/>
					<path class="st15" d="M77.4,107.5c0,0,2.6-0.7,3.7-0.4c1.2,0.3,1.2,0.6,2.1,0s1.5-1.2,2.9-1.6c1.4-0.4,3-0.7,3.7-1.3
						c0.8-0.6,2.9-2.5,2.9-2.5l1.4-1.6l-14.4,6.3h-1.5L77.4,107.5z"/>
					<path class="st9" d="M65.6,98.2c0,0-1,1.3-0.6,2.6c0,0,0.2,0.2,0.4,0.1c0.2-0.2,0.3-0.2,0.6,0.1c0.2,0.3,1.4,1.8,4.8,3.7
						c3.5,1.9,5.8,1.6,7.1,1.7c1.3,0.1,2.1,0.2,2.9,0.5c0.7,0.2,1.1,0.1,1.7-0.2s2.4-1.1,3.6-1.3c1.2-0.3,2.3-0.6,3.2-1.3
						c1-0.7,3.2-2.6,3.9-3.1c0.6-0.6,1-0.8,1-0.8s-0.2,0.4-0.5,0.9s-0.5,1-0.7,1.5c-0.2,0.4-0.8,1.5-1,1.7c0,0,0.6-0.8,1.1-1.5
						c0.4-0.7,0.9-1.5,1.4-2.2c0.5-0.8,1.2-1.7,1.4-2s0.6-0.9,0.4-0.9c0,0-0.3,0.1-0.7,0.4s-1.7,1.3-5,1.5c-3.2,0.2-6.1,0.8-8.1,1.5
						c0,0-1,0.4-1.4,0.4s-3.5-0.1-5.3,0s-5.5,0.7-6.9,0.5c-1.4-0.2-2.6-0.7-3.1-1.4c0,0-0.3-0.1-0.4-0.2s0-1.1,0.1-1.5
						C65.6,98.6,65.8,97.8,65.6,98.2z"/>
					<path class="st10" d="M72.2,102.4c0,0,0.4-0.4,0.5-0.5s0.2-0.1,0.7-0.1s1.2-0.2,1.3-0.1c0.1,0.1,0.3,0.7,0.3,0.9
						c0,0,0.1-0.6,0.3-0.8c0.2-0.2,1.6-0.6,2,0.1c0.5,0.7,0.6,1.1,0.6,1.1s0-0.9,0.5-1.3c0.5-0.3,1.9-0.4,2.4,0
						c0.4,0.4,0.6,1.1,0.6,1.1s-0.1-1,0.4-1.3s1.7-0.7,2.1-0.6s0.7,0.5,0.9,0.8v-0.6c0,0,0-0.3,0.4-0.4c0.3-0.1,1.5-0.7,1.9,0
						c0,0,0.2,0.2,0.2,0.3c0,0-0.2-0.5,0.2-0.7c0.3-0.2,1.3-0.5,1.5-0.4s0.4,0.2,0.5,0.4c0,0-0.1-0.5,0.2-0.6s1.6-0.4,1.8-0.3
						c0.3,0.1,0.2,0.2,0.2,0.6s0.1,0.8-0.2,0.9c-0.4,0.1-0.7,0.2-0.7,0.2s-0.1,0.7-0.3,0.8c-0.1,0.1-0.7,0.3-0.9,0.2
						c-0.2-0.1-0.3-0.3-0.3-0.3s0,0.4-0.2,0.5s-0.9,0.5-1.2,0.4s-0.3-0.5-0.3-0.5s0.2,0.6-0.2,0.8s-1.2,0.6-1.6,0.6
						s-0.6-0.6-0.7-0.9c0,0-0.1,0-0.1,0.2s0,0.8-0.6,1s-1.4,0.5-1.8,0.5c-0.3,0-0.7,0-0.7,0s-0.2-0.3-0.2-0.5c0-0.1-0.1,0.8-0.3,0.8
						c-0.2,0.1-2.5,0-2.8,0s-0.4-0.1-0.4-0.3s-0.2-0.5-0.3-0.3c-0.1,0.2-0.1,0.3-0.3,0.3c-0.2,0-0.6,0.1-0.6,0.1s-0.9-0.2-1.4-0.4
						c-0.4-0.2-0.6-0.8-0.7-0.9V103c0,0,0,0.7-0.1,0.7c-0.1,0.1-0.6,0.1-0.8,0c-0.2-0.1-0.5-0.7-0.6-0.9c-0.1-0.1-0.3-0.1-0.3,0
						c0,0.2,0,0.3,0,0.3s-0.1,0.1-0.3-0.2C72.6,103.3,72,102.7,72.2,102.4z"/>
					<path class="st10" d="M73.5,104.6l0.3-0.2c0,0,0.2,0.1,0.3,0.2c0.1,0.1,0.5,0.2,0.7,0.1c0.2-0.1,0.4-0.1,0.7,0.1
						c0.3,0.2,0.8,0.5,1.3,0.5s0.6,0,0.7,0.2s0.2,0.2,0.3,0.1c0.1-0.1,0.2-0.1,0.4-0.1c0.2,0,1.5,0,2.4,0c0.8,0,1.6-0.1,1.8-0.2
						c0.2-0.1,0.3-0.2,0.5-0.2s0.9,0,0.9,0s0.5-0.2,0.8-0.4s0.5-0.4,0.6-0.5s0.3-0.1,0.4,0c0.2,0.1,0.7,0,1.3-0.3
						c0.5-0.3,0.8-0.5,0.8-0.5s0.5,0.1,1-0.1c0.5-0.3,0.7-0.4,0.8-0.4s0.3,0,0.3,0s0.1,0.2-0.1,0.3c-0.2,0.1-0.8,1-1.9,1.4
						c-1.1,0.3-1.4,0.5-1.5,0.5s-1.3,0.4-1.9,0.5c-0.5,0.2-1.4,0.7-1.9,0.9s-1.1,0.2-1.5,0.1c-0.4-0.1-2.8-0.3-3.1-0.3
						c-0.3,0-0.9-0.2-1.2-0.3c-0.2-0.1-1.3-0.4-1.7-0.5C74.6,105.3,73.7,105.1,73.5,104.6z"/>
					<path class="st9" d="M79.6,105.5c0,0,0.8,0.2,1.5,0c0.6-0.3,0.7,0,0.7,0v0.3l0.2-0.6c0,0,0.3-0.2,0.8-0.2c0.4,0,1,0.1,1,0.1
						l0.2,0.2l0.1-0.4l0.5-0.3c0.1,0-1.9,0.3-2.6,0.3C81.3,105,79.7,105.3,79.6,105.5z"/>
					<path class="st9" d="M78.1,105.4c0,0-0.5,0.1-0.5,0.3v0.3c0,0,0-0.7-0.4-0.8c0,0,1-0.1,0.9-0.4V105.4z"/>
					<path class="st9" d="M87.6,102.5c0,0,0,0.8-0.8,1.2c-0.5,0.2-1.1,0.5-1.1,0.5v0.3c0,0,0.4-0.4,0.7-0.5c0.3-0.1,0.9-0.2,1.1,0
						c0.2,0.3,0.2,0.3,0.2,0.3s-0.1-0.5,0.2-0.8c0.3-0.2,0.4-0.4,0.4-0.4S87.7,103,87.6,102.5z"/>
					<path class="st7" d="M86.6,111.3c-1.7,1.1-3.8,1.3-3.8,1.3c-3.4,0.2-4.4-0.8-3.9-1.1c0,0,3.1,1.3,7.4-0.4l0.8-0.4
						C87.1,110.7,87.3,110.9,86.6,111.3z"/>
					<path class="st7" d="M70.7,105.9c0,0,0.2,0.3,0.6,0.8s1.1,1.2,1.9,1.9c0.4,0.3,0.9,0.7,1.5,1s1.2,0.6,1.8,0.8
						c0.7,0.2,1.4,0.3,2.2,0.3c0.4,0,0.7,0,1.1,0s0.7-0.1,1.1-0.1s0.7-0.1,1.1-0.2c0.4-0.1,0.7-0.2,1.1-0.2c0.7-0.1,1.5-0.2,2.2-0.3
						c0.3-0.1,0.7-0.1,1-0.2c0.3-0.1,0.7-0.2,1-0.3c0.6-0.2,1.2-0.5,1.6-0.8c0.1-0.1,0.2-0.1,0.3-0.2c0.1-0.1,0.2-0.2,0.3-0.2
						c0.2-0.2,0.4-0.3,0.5-0.5c0.1-0.1,0.2-0.2,0.2-0.2c0.1-0.1,0.1-0.2,0.2-0.2c0.1-0.1,0.1-0.1,0.2-0.2c0.1-0.1,0.1-0.1,0.1-0.2
						c0.1-0.1,0.2-0.2,0.3-0.4c0.1-0.1,0.1-0.2,0.2-0.3c0.1-0.2,0.1-0.2,0.1-0.2s0,0.1-0.1,0.2c0,0.1-0.1,0.2-0.2,0.3
						c-0.1,0.1-0.2,0.2-0.2,0.4c0,0.1-0.1,0.1-0.1,0.2c-0.1,0.1-0.1,0.1-0.2,0.2c-0.1,0.1-0.1,0.2-0.2,0.2c-0.1,0.1-0.1,0.2-0.2,0.2
						c-0.2,0.2-0.3,0.3-0.5,0.5c-0.1,0.1-0.2,0.2-0.3,0.2c-0.1,0.1-0.2,0.2-0.3,0.2c-0.5,0.3-1,0.6-1.6,0.8c-0.3,0.1-0.6,0.2-1,0.3
						c-0.3,0.1-0.7,0.2-1,0.2c-0.7,0.1-1.4,0.2-2.1,0.3c-0.4,0.1-0.7,0.2-1.1,0.2c-0.4,0.1-0.7,0.1-1.1,0.2c-0.4,0-0.8,0.1-1.1,0.1
						c-0.4,0-1,0.1-1.4,0.1c-0.7,0-1.2-0.2-1.9-0.4c-0.7-0.2-1.3-0.5-1.9-0.8s-1.1-0.7-1.5-1c-0.9-0.7-1.5-1.4-1.9-1.9
						C70.9,106.2,70.7,105.9,70.7,105.9z"/>
					<path class="st9" d="M66.6,101c0.4,0.3,0.8,0.4,1.3,0.5c0.6,0,0.8,0.1,1.1,0.1c0.3,0,0.5,0,0.8-0.1c0.3,0,0.5-0.1,0.8-0.1
						c0.3-0.1,0.5-0.1,0.8-0.2s0.5-0.2,0.8-0.3l0.4-0.2l0.4-0.1c0.3-0.1,0.5-0.2,0.8-0.2c0.3-0.1,0.5-0.1,0.8-0.2s0.5-0.1,0.8-0.1
						s0.5-0.1,0.8-0.1s0.5-0.1,0.8-0.1h0.4h0.4c0.1,0,0.3,0,0.4,0s0.3,0,0.4,0c0.3,0,0.5,0,0.8,0.1l0.4,0.1l0.4,0.1l0,0l0,0
						c0.3,0.1,0.6,0.2,0.9,0.2s0.6-0.1,0.9-0.3c0.3-0.2,0.5-0.4,0.8-0.6c0.1-0.1,0.3-0.2,0.4-0.2c0.2-0.1,0.3-0.1,0.4-0.2
						c0.2-0.1,0.3-0.1,0.5-0.1s0.3-0.1,0.5-0.1s0.3-0.1,0.5-0.1s0.3-0.1,0.5-0.1s0.3,0,0.5,0s0.3,0,0.5,0s0.3,0,0.5,0s0.3,0,0.5,0
						s0.3,0,0.5,0s0.3,0,0.5,0.1c0.3,0,0.6,0.1,0.9,0.2c0.3,0.1,0.6,0.2,0.9,0.2l0.5,0.1c0.2,0,0.3,0.1,0.5,0.1h0.5
						c0.1,0,0.2,0,0.2,0h0.2h0.5c0.2,0,0.3,0,0.5,0c0.3,0,0.6-0.1,0.9-0.1l0.5-0.1c0.2,0,0.3-0.1,0.4-0.1l0,0
						c-0.1,0.1-0.3,0.1-0.4,0.2l-0.5,0.1c-0.3,0.1-0.6,0.1-0.9,0.1c-0.2,0-0.3,0-0.5,0h-0.5h-0.2c-0.1,0-0.2,0-0.2,0h-0.5
						c-0.2,0-0.3,0-0.5-0.1l-0.5-0.1c-0.3-0.1-0.6-0.1-0.9-0.2c-0.3-0.1-0.6-0.2-0.9-0.2c-0.2,0-0.3,0-0.5-0.1c-0.2,0-0.3,0-0.5,0
						s-0.3,0-0.5,0h-0.2h-0.2c-0.2,0-0.3,0-0.5,0s-0.3,0-0.5,0s-0.3,0-0.5,0.1c-0.2,0-0.3,0.1-0.5,0.1s-0.3,0.1-0.5,0.1
						s-0.3,0.1-0.4,0.1s-0.3,0.1-0.4,0.2s-0.3,0.1-0.4,0.2c-0.3,0.1-0.5,0.4-0.8,0.5c-0.3,0.2-0.6,0.3-0.9,0.3s-0.6-0.1-0.9-0.2l0,0
						l-0.4-0.1l-0.4-0.1c-0.3,0-0.5-0.1-0.8-0.1c-0.1,0-0.3,0-0.4,0s-0.3,0-0.4,0h-0.4h-0.4c-0.3,0-0.5,0.1-0.8,0.1
						s-0.5,0.1-0.8,0.1s-0.5,0.1-0.8,0.2s-0.5,0.1-0.8,0.2s-0.5,0.2-0.8,0.2l-0.4,0.1l-0.4,0.1c-0.2,0.1-0.5,0.2-0.8,0.3
						c-0.3,0.1-0.5,0.1-0.8,0.2c-0.1,0-0.3,0-0.4,0.1c-0.1,0-0.3,0-0.4,0c-0.3,0-0.5,0-0.8,0.1c-0.5,0-1.1,0-1.6-0.1L66.6,101z"/>
					<path class="st5" d="M89.9,99c0,0-0.8-1.3-2.9-1.2c-2.1,0.1-2.6,0.6-3.1,0.8C86.9,98.5,89.9,99,89.9,99z"/>
					<path class="st14" d="M80.2,100.5c0,0-1.6-1.6-3.8-1c-2.6,0.7-2.7,0.9-3.3,1.3c-0.5,0.3,0.1,0.1,5.3,0.1
						C79.6,100.9,80.2,100.5,80.2,100.5z"/>
					<path class="st9" d="M48.7,89.3c0,0,2,3.4,2.9,8.5c0.9,5.1,4.1,10.4,8.8,15.5c0,0,4,3.6,6.4,5.2c0,0-1.8-0.1-4.1-2.4
						c-2.4-2.3-6.2-6.1-8.3-9.7c-2.1-3.6-3-8.7-3.5-10s-1.5-1.3-2.3-1.5c-0.7-0.2-2.7-0.1-3.3-4.7c-0.5-4.6-1.3-7.2-2.1-8.5
						c-0.9-1.3-2.8-5-1-7.9c0,0,0.7,0.2,1.1,1c0.3,0.8,0.2,1.4,0.5,2.2c0,0,0.3,0.4,0.6,1.4c0.3,1,0.5,1.4,0.6,2.5
						c0.2,1.1,1,4.5,2.9,6.5c0,0.1,0.4,0.8,0.4,0.8s-0.8-0.6-1.7-2.1c-0.9-1.5-1.6-2.9-2.1-6.1c0,0-0.4-1.7-0.8-2.5s-1-2.8-1.1-3.1
						c-0.1-0.3-0.3-0.6-0.4-0.1s-0.7,2.6,0.2,5.1c0.9,2.5,1.8,2.4,2.3,5.4s1.3,7.1,1.5,7.7s0.4,1.5,1.8,1.9s2.1,0.6,2.1,0.4
						s-1.1-3.7-1.3-4.1c0,0-0.1-0.4-0.2-0.6C48.7,89.8,48.4,89.1,48.7,89.3z"/>
					<path class="st9" d="M42.3,74c0,0-1.3-2.9-1.6-5.7c-0.4-2.8,0.1-3.2-0.7-4.1c-0.8-0.9,0.1-1.8,0-2.9s-0.5-1.3-0.6-2.5
						s0.9-2.2,0.9-4.3c-0.1-2.1,0.1-5,0.2-6.3c0.1-1.2-0.5-5.8,1-7.6c1.5-1.8,1.9-2.3,1.7-3.6c-0.2-1.3-1.7-1.5,1-3.5
						c2.7-2.1,3.2-2.1,4.5-4.3c1.3-2.1,2.5-2.4,4.3-3.9s4.5-3.1,5.2-3.9c0.7-0.8,0.9-1,2.6-1.4s4.4-1.2,5.4-1.6
						c1-0.4,1.5-0.7,2.7-0.7s1.8,0.5,2.6,0c0.9-0.5,4.7-1.9,6.8-2.1c2.1-0.2,2.7,0.1,4.3,0.7c1.6,0.6,1.5,1,2.9,0.7
						c1.5-0.3,2.6-0.7,4-0.1c1.5,0.5,2.5,2.1,4,2.3c1.5,0.1,1.7,0.1,3.1,0.2c1.4,0.1,1.7,0.2,2.6,0.7c0.9,0.5,0.9,0.7,1.2,1.6
						c0.2,0.9,1.5,3.6,2.3,2.3s1.2-4.8-2.6-4.3c0,0,3.8-1,4.3,1.5c0.5,2.4,0.5,4.4,0.2,5.6c0,0-0.2,1.8,0.7,2.9
						c0.9,1.1,2.7,4.4,4,5.8c1.3,1.3,4,5.2,4.6,6.3c0.6,1,0.9,1.6,0.9,3.3c0.1,1.7,0.2,4,0.7,5.2s-0.2,0.9,0,2.9s-0.6,1.9,0.2,3.1
						s1,3,0.9,4.1s-1.1,3.1-1.1,4c0,0-1.8,1-2.4,2.9c-0.6,1.9-0.2,4.1,0.2,5.6s0.9,3.3,0.1,4.8c-0.9,1.5-1.4,2.4-1.5,2.2
						c-0.1-0.3-0.3-5.3-0.3-5.3c-0.3-1.6-1.3-5.5-1.8-7s-1.2-5.5-1.5-7s-0.1-1.9-1.9-3.5c-1.7-1.6-2.1-4.7-2.7-7.9
						c-0.6-3.2-2.5-6.5-5-8.5s-3.1-4.9-3.5-5.6c-0.4-0.7-0.9-1.3-0.9-0.5s-0.4,2.1-0.4,2.1v-0.9c0-0.9-0.6-3-0.6-3s-0.1-0.2-0.4,0.9
						c-0.3,1.1-1.1,1.4-1.1,1.4c1-1.2,0.3-3.1,0.3-3.1c-0.5-0.1-2.9,1-3.4,1.5s-0.6,0.5-1.1,0.9c-0.5,0.3-0.8,0.2-1.6,0.6
						c-0.9,0.4-1.8,0-3.2,0c-1.4,0-2.3,0.4-4.7,1.5c-2.4,1-5.5,0.3-6.5-0.2s-1.2-0.2-1.2-0.2c-1.1,0.5-1.5,0.5-3,0.5
						c-1.5-0.1-1.7,0.3-2.8,2.1c-1.1,1.8-2.3,1.3-4,0.8c-1.6-0.5-4.2,0.5-7,2.2c-2.8,1.6-2.8,5.9-2.7,8.2c0.1,2.3,0.2,1.5,0,6.4
						s-2.9,9.8-3.7,12.1c-0.8,2.3,0.2,4.7,0.4,5.4c0.1,0.7,0.3,4.2,0.3,6.4c0,2.2,0.5,6.4,0.5,6.4l0.3,1.7c0,0-1.8-2.1-2.8-5.2
						s-1.8-6.4-1.9-7C43.5,75.4,42.5,73.7,42.3,74z"/>
					<path class="st9" d="M115.3,65.1l0.4-1.2v-0.1v0.1c0.3,0.5,0.4,1,0.5,1.6c0,0.3,0.1,0.5,0.1,0.8v0.4v0.4v0.4v0.4
						c0,0.3,0,0.5,0,0.8s0,0.5,0,0.8v0.8c0,0.3-0.1,0.5-0.1,0.8c0,0.1,0,0.3,0,0.4l-0.1,0.4l-0.1,0.4l-0.1,0.4l-0.1,0.8
						c-0.1,0.5-0.2,1.1-0.2,1.6v0.4v0.4c0,0.3,0,0.5,0,0.8c0,0.5,0,1.1,0,1.6c0,0.3,0,0.5,0.1,0.8c0,0.3,0.1,0.5,0.1,0.8
						c0.1,0.5,0.1,1.1,0.1,1.6c0,0.3,0,0.5,0.1,0.8s0,0.6,0,0.9c0,0.6-0.2,1.1-0.4,1.6s-0.5,1-0.8,1.4c-0.4,0.4-0.8,0.8-1.3,1
						s-1,0.4-1.6,0.4c0.5-0.1,1.1-0.3,1.5-0.5c0.5-0.3,0.9-0.6,1.2-1s0.6-0.9,0.7-1.4c0.2-0.5,0.3-1,0.3-1.6c0-0.3,0-0.5,0-0.8
						c-0.1-0.3-0.1-0.6-0.1-0.8c0-0.5-0.1-1.1-0.1-1.6c0-0.3-0.1-0.5-0.1-0.8s0-0.5-0.1-0.8c0-0.5,0-1.1,0-1.6c0-0.3,0-0.5,0-0.8
						v-0.4v-0.4c0.1-0.5,0.1-1.1,0.2-1.6l0.2-0.8l0.1-0.4l0.1-0.4l0.1-0.4c0-0.1,0-0.3,0.1-0.4c0-0.3,0.1-0.5,0.1-0.8l0.1-0.8
						c0-0.3,0-0.5,0-0.8s0-0.5,0-0.8v-0.4v-0.4v-0.4v-0.4c0-0.3,0-0.5-0.1-0.8c-0.1-0.5-0.2-1.1-0.4-1.6h0.1L115.3,65.1z"/>
					<path class="st9" d="M114.5,74.6c0-0.1,0-0.2,0-0.3c0-0.1,0-0.2,0-0.3c0-0.2-0.1-0.4-0.2-0.6l0,0c0-0.1-0.1-0.2-0.1-0.3
						c0-0.1-0.1-0.2-0.1-0.3c0-0.1,0-0.1,0-0.2s0-0.1,0-0.2s0-0.2,0-0.3c0-0.1,0-0.2,0-0.3c0-0.1,0-0.2,0-0.3c0-0.2,0-0.4,0.1-0.7
						h0.2v0.3v0.3c0,0.1,0,0.2,0,0.3c0,0.1,0,0.2,0,0.3c0,0.4,0.1,0.7,0.1,1.1h-0.3v-0.2c0-0.1,0-0.1,0-0.2s0-0.3,0.1-0.4
						c0-0.3,0.1-0.6,0.2-0.9c0.1-0.6,0.2-1.1,0.3-1.7c0-0.1,0-0.3,0.1-0.4v-0.1v-0.1v-0.2V68c0-0.3,0-0.6,0-0.9v-0.9h0.4
						c0,0.3,0,0.7-0.1,1c0,0.2-0.1,0.3-0.1,0.5c-0.1,0.2-0.1,0.3-0.2,0.4c-0.2,0.3-0.3,0.5-0.5,0.8s-0.3,0.5-0.4,0.8
						c-0.1,0.1-0.1,0.3-0.2,0.4l-0.2,0.4c-0.1,0.3-0.2,0.6-0.3,0.8c-0.1,0.3-0.1,0.6-0.1,0.9s0,0.6,0.1,0.9c0,0.3,0.1,0.6,0.2,0.9
						l0.2,0.9c0,0.1,0.1,0.3,0.1,0.5v0.2v0.2c0,0.3-0.1,0.6-0.1,0.9c-0.1,0.3-0.2,0.6-0.3,0.9c-0.1,0.1-0.1,0.3-0.2,0.4
						c-0.1,0.1-0.2,0.3-0.2,0.4c-0.3,0.5-0.7,1-1,1.5c0.3-0.5,0.6-1.1,0.9-1.6c0.1-0.1,0.2-0.3,0.2-0.4c0.1-0.1,0.1-0.3,0.2-0.4
						c0.1-0.3,0.2-0.6,0.2-0.9c0.1-0.3,0.1-0.6,0.1-0.9v-0.2v-0.2c0-0.1,0-0.3-0.1-0.4l-0.2-0.9c-0.1-0.3-0.2-0.6-0.2-0.9
						c-0.1-0.6-0.2-1.3-0.1-1.9c0.1-0.3,0.2-0.6,0.3-0.9l0.2-0.4c0.1-0.1,0.1-0.3,0.2-0.4c0.1-0.3,0.3-0.6,0.4-0.8
						c0.1-0.3,0.3-0.5,0.5-0.8c0.1-0.1,0.1-0.3,0.2-0.4c0-0.1,0.1-0.3,0.1-0.4c0.1-0.3,0.1-0.6,0.1-0.9h0.4v0.9c0,0.3,0,0.6,0,0.9
						l-0.1,0.9v0.2v0.1v0.1c0,0.1,0,0.3-0.1,0.4c-0.1,0.6-0.2,1.2-0.3,1.7c-0.1,0.3-0.1,0.6-0.2,0.9c0,0.1-0.1,0.3-0.1,0.4
						s0,0.1,0,0.2v0.2l-0.1,1.2L114,73c0-0.4-0.1-0.7-0.1-1.1c0-0.1,0-0.2,0-0.3c0-0.1,0-0.2,0-0.3V71c0-0.1,0-0.2,0-0.3h0.2
						c0,0.1,0,0.2-0.1,0.3c0,0.1,0,0.2,0,0.3c0,0.1,0,0.2,0,0.3c0,0.1,0,0.2,0,0.3c0,0.1,0,0.2,0,0.3c0,0.1,0,0.1,0,0.2
						c0,0,0,0.1,0,0.2s0.1,0.2,0.1,0.3c0,0.1,0.1,0.2,0.1,0.3l0,0l0,0c0,0.2,0.1,0.4,0.1,0.6c0,0.1,0,0.2,0,0.3
						C114.5,74.3,114.5,74.5,114.5,74.6z"/>
					<path class="st9" d="M114.3,76.9c0,0,0,0.1,0,0.2s0,0.1,0,0.2s0,0.2,0,0.3c0,0.1,0,0.2,0,0.3c0,0.1,0,0.2,0,0.3
						c0,0.1,0,0.2-0.1,0.4c0,0.1-0.1,0.2-0.1,0.3c-0.1,0.2-0.1,0.4-0.2,0.7c0,0.1,0,0.2,0,0.3c0,0.1,0,0.2,0,0.3c0,0.1,0,0.2,0,0.2
						c0,0.1,0,0.1,0.1,0.2c0,0.1,0.1,0.2,0.1,0.2s0,0-0.1-0.1c0,0-0.1-0.1-0.1-0.2c0,0,0-0.1-0.1-0.1c0,0,0-0.1-0.1-0.1
						c-0.1-0.2-0.1-0.4-0.1-0.7c0-0.1,0-0.2,0.1-0.4c0-0.1,0.1-0.2,0.1-0.4c0-0.1,0.1-0.2,0.1-0.3c0-0.1,0.1-0.2,0.1-0.3
						c0-0.1,0.1-0.2,0.1-0.3c0-0.1,0-0.2,0.1-0.3c0-0.1,0-0.2,0-0.2c0-0.1,0-0.1,0-0.2C114.3,76.9,114.3,76.9,114.3,76.9z"/>
					<path class="st9" d="M110.4,72c0,0,0.1,0.5,0.3,1.5c0.1,0.5,0.2,1,0.3,1.7s0.3,1.4,0.4,2.2c0.1,0.8,0.2,1.7,0.3,2.6
						c0,0.5,0.1,1,0.1,1.4c0,0.5,0.1,1,0.1,1.5s0.1,1,0.1,1.6c0,0.3,0,0.5,0,0.8s0,0.5,0,0.8s0,0.5,0,0.8s0,0.6,0,0.8
						c0,0.3,0,0.5,0,0.8l-0.1,0.8c-0.1,0.5-0.1,1.1-0.2,1.6c-0.1,0.5-0.1,1.1-0.2,1.6c-0.1,0.5-0.2,1.1-0.2,1.6
						c-0.1,0.5-0.2,1-0.3,1.5c0,0.3-0.1,0.5-0.1,0.8c0,0.1,0,0.2-0.1,0.4c0,0.1,0,0.1,0,0.2v0.2c0,0.1-0.1,0.2-0.1,0.4
						c0,0.1-0.1,0.2-0.1,0.4c-0.1,0.2-0.2,0.5-0.3,0.7c-0.4,0.9-0.8,1.7-1.2,2.4c-0.4,0.7-0.8,1.4-1.1,1.9c-0.4,0.6-0.7,1.1-0.9,1.5
						c-0.1,0.2-0.3,0.4-0.4,0.5c-0.1,0.2-0.2,0.3-0.3,0.4c-0.2,0.2-0.2,0.3-0.2,0.3s0.1-0.1,0.2-0.3c0.1-0.2,0.3-0.5,0.6-0.9
						c0.5-0.8,1.2-2,2-3.5c0.4-0.7,0.8-1.5,1.1-2.4c0.1-0.2,0.2-0.4,0.2-0.7c0-0.1,0.1-0.2,0.1-0.3c0-0.1,0.1-0.2,0.1-0.4
						c0.1-0.5,0.2-1,0.3-1.5s0.2-1,0.2-1.5c0.1-0.5,0.2-1.1,0.2-1.6c0.1-0.5,0.1-1.1,0.2-1.6c0.1-0.5,0.1-1.1,0.2-1.6l0.1-0.8
						c0-0.3,0-0.5,0.1-0.8c0-0.3,0-0.5,0-0.8s0-0.5,0-0.8s0-0.5,0-0.8s0-0.5,0-0.8c0-0.5,0-1-0.1-1.6c0-0.5-0.1-1-0.1-1.5
						s-0.1-1-0.1-1.4c-0.1-0.9-0.2-1.8-0.3-2.6c-0.1-0.8-0.2-1.6-0.3-2.2c-0.1-0.7-0.2-1.2-0.3-1.7C110.5,72.6,110.4,72,110.4,72z"
						/>
					<path class="st9" d="M108.8,101.7c0,0,0.1,5.2,0.3,7.7c0.3,2.4,1.4,6.3,0.9,9.2s-1,8.9-4,13.2s-7.9,8.7-10.3,10.8
						c-2.4,2.1-5.9,6.1-6,7.2c0,0,2.7-3.8,6.3-6.7s7.3-6.8,9.9-10.5c2.6-3.8,4.1-9.7,4.3-11.9c0.2-2.1,1-8.2,0.5-10.7
						c-0.3-1.7-0.7-3.3-1-4.5c-0.1-0.6-0.2-1.1-0.3-1.4l-0.2-3.2L108.8,101.7z"/>
					<path class="st9" d="M109.1,106c0.1-0.2,0.1-0.4,0.3-0.6c0.1-0.2,0.3-0.4,0.5-0.4c0.2-0.1,0.5-0.1,0.7,0s0.4,0.2,0.6,0.3
						c0.4,0.2,0.8,0.5,1.1,0.8c0.2,0.2,0.3,0.3,0.5,0.4c0.2,0.1,0.4,0.2,0.6,0.4c0.4,0.3,0.7,0.6,1.1,0.8c0.2,0.1,0.4,0.2,0.6,0.3
						c0.2,0.1,0.4,0.1,0.6,0.1c0.2,0,0.4,0,0.7,0c0.2,0,0.5,0,0.7,0c0.5,0,0.9,0,1.4,0.2c0.4,0.2,0.8,0.4,1.2,0.7
						c0.2,0.2,0.3,0.3,0.5,0.5l0.5,0.5c0.3,0.3,0.6,0.6,0.9,1c0.3,0.3,0.7,0.6,1,0.9c0.3,0.3,0.6,0.7,0.9,1c0.1,0.2,0.3,0.3,0.4,0.5
						l0.2,0.3l0.2,0.3c0.1,0.1,0.1,0.2,0.2,0.3c0.1,0.1,0.1,0.2,0.2,0.3c0.1,0.2,0.2,0.4,0.2,0.7c0.1,0.5,0.2,0.9,0.2,1.4h-0.4
						c0-0.1,0-0.2,0-0.3s0-0.2,0-0.3c0-0.2,0-0.4-0.1-0.7l-0.1-0.3c0-0.1-0.1-0.2-0.1-0.3s-0.1-0.2-0.1-0.3s-0.1-0.2-0.1-0.3
						s-0.1-0.2-0.1-0.3l-0.1-0.3c-0.1-0.1-0.1-0.2-0.2-0.3l-0.1-0.1l-0.1-0.1c-0.1-0.1-0.1-0.2-0.2-0.3l-0.2-0.2
						c-0.1-0.1-0.2-0.2-0.2-0.2l-0.3-0.2l0,0l0,0l-1.6-1.8l0,0l0,0c0-0.2,0.1-0.3,0.2-0.3c0.1,0,0.2,0,0.2-0.1c0.1,0,0.3,0,0.4,0
						c0.3,0,0.5,0.1,0.7,0.2c0.2,0.1,0.5,0.2,0.7,0.3l0.7,0.3c0.5,0.2,0.9,0.4,1.4,0.6c0.5,0.2,0.9,0.3,1.4,0.4
						c0.2,0,0.5,0.1,0.7,0.1s0.5,0,0.8,0.1c0.5,0,1,0.1,1.5,0.2c0.2,0,0.5,0.1,0.7,0.1c0.2,0.1,0.5,0.1,0.7,0.2
						c0.2,0.1,0.5,0.1,0.7,0.2c0.2,0.1,0.5,0.2,0.6,0.4c-0.2-0.2-0.4-0.3-0.7-0.3c-0.2-0.1-0.5-0.2-0.7-0.2
						c-0.2-0.1-0.5-0.1-0.7-0.2c-0.2,0-0.5-0.1-0.7-0.1c-0.5-0.1-1-0.1-1.5-0.1c-0.2,0-0.5,0-0.8,0s-0.5,0-0.8-0.1
						c-0.5-0.1-1-0.2-1.5-0.4s-1-0.4-1.4-0.5l-0.7-0.3c-0.2-0.1-0.5-0.2-0.7-0.3s-0.5-0.1-0.7-0.2c-0.1,0-0.2,0-0.3,0h-0.1l0,0l0,0
						l0,0v-0.1l1.6,1.8l0,0l0.3,0.2c0.1,0.1,0.2,0.2,0.3,0.2l0.2,0.3c0.1,0.1,0.1,0.2,0.2,0.3l0.1,0.1c0,0,0.1,0.1,0.1,0.2
						c0.1,0.1,0.1,0.2,0.2,0.3l0.2,0.3c0.1,0.1,0.1,0.2,0.1,0.3s0.1,0.2,0.1,0.3s0.1,0.2,0.1,0.3s0.1,0.2,0.1,0.3l0.1,0.3
						c0,0.2,0.1,0.5,0.1,0.7c0,0.1,0,0.2,0,0.4c0,0.1,0,0.2,0,0.4h-0.4c0-0.4,0-0.9-0.2-1.3c0-0.2-0.1-0.4-0.2-0.6
						c0-0.1-0.1-0.2-0.1-0.3s-0.1-0.2-0.2-0.3l-0.2-0.3l-0.2-0.3c-0.1-0.2-0.3-0.4-0.4-0.5c-0.3-0.3-0.6-0.7-0.9-1
						c-0.3-0.3-0.6-0.6-1-0.9c-0.3-0.3-0.6-0.6-0.9-1l-0.5-0.5c-0.2-0.2-0.3-0.3-0.5-0.5c-0.3-0.3-0.7-0.5-1.1-0.7
						c-0.4-0.2-0.8-0.2-1.3-0.2c-0.2,0-0.4,0-0.7,0h-0.3c-0.1,0-0.2,0-0.3,0c-0.2,0-0.5-0.1-0.7-0.1c-0.2-0.1-0.4-0.2-0.6-0.3
						c-0.4-0.2-0.7-0.6-1.1-0.8c-0.2-0.1-0.4-0.3-0.6-0.4c-0.2-0.1-0.3-0.3-0.5-0.5c-0.3-0.3-0.7-0.6-1-0.9
						c-0.2-0.1-0.4-0.2-0.6-0.3c-0.2-0.1-0.4-0.1-0.6,0c-0.2,0.1-0.4,0.2-0.5,0.4C109.3,105.6,109.2,105.8,109.1,106z"/>
					<path class="st9" d="M94.7,119.2c0,0-3.5,6.2-11.1,6.8c0,0-6.4,0.6-11.4-4.1c0,0,9.5,6.5,17.5,1.6
						C89.6,123.6,93.5,121.6,94.7,119.2z"/>
					<path class="st9" d="M57.5,109.8c-0.4,0.3-0.9,0.7-1.3,1c-0.4,0.4-0.8,0.7-1.2,1.1c-0.8,0.8-1.6,1.5-2.3,2.4
						c-0.3,0.4-0.7,0.9-1,1.3c-0.3,0.5-0.6,0.9-0.8,1.4c-0.2,0.5-0.5,1-0.7,1.5s-0.5,1-0.8,1.5l-1.5,2.9c-0.5,1-1,2-1.4,3
						c-0.5,1-0.9,2-1.2,3c-0.2,0.5-0.3,1-0.4,1.6c-0.1,0.5-0.4,2.2-0.4,2.3c0,0.2-0.1,0.4-0.1,0.7c0,0.4,0.1,0.9,0.3,1.3h-0.1
						c0.3-0.2,0.7-0.5,1-0.7c0.4-0.2,0.7-0.4,1.1-0.5h0.1v0.1c0,0.5-0.1,1-0.1,1.5s0,1,0.1,1.5c0,0.5,0.1,1,0.3,1.5
						c0,0.1,0.1,0.2,0.1,0.4c0,0.1,0.1,0.2,0.1,0.3s0.1,0.2,0.2,0.3c0,0.1,0.1,0.1,0.1,0.2l0.1,0.1l0,0c0.5,0.3,0.9,0.7,1.4,1
						s1,0.6,1.5,0.9c1,0.5,2,1,3.1,1.4s2.2,0.7,3.3,0.7c1.1,0.1,2.3-0.1,3.3-0.5l0,0c0.7-0.5,1.5-1,2.3-1.4c0.2-0.1,0.4-0.2,0.6-0.3
						c0.1,0,0.2-0.1,0.3-0.1c0.1,0,0.2-0.1,0.3-0.1h0.1H64c0.1,0,0.1,0,0.2,0c0,0,0.1,0,0.1,0.1l0.1,0.1c0,0.1,0,0.2,0,0.3
						s-0.1,0.2-0.2,0.3s-0.1,0.2-0.2,0.3v-0.3l0.9,1c0.3,0.3,0.6,0.7,0.9,1s0.6,0.7,0.9,1c0.3,0.4,0.5,0.7,0.8,1.1
						c0.3,0.3,0.6,0.6,1,0.9c0.4,0.2,0.8,0.4,1.2,0.4c0.4,0,0.9,0,1.3-0.1s0.9-0.2,1.3-0.3s0.9-0.2,1.3-0.2c0.4-0.1,0.9-0.1,1.4-0.1
						s0.9,0,1.4,0s0.9,0.2,1.3,0.3l1.3,0.5c0.4,0.2,0.8,0.3,1.3,0.5c0.4,0.2,0.8,0.4,1.2,0.6c0.4,0.3,0.7,0.5,1,0.9l0,0
						c-0.3-0.3-0.7-0.6-1-0.8c-0.4-0.2-0.8-0.4-1.2-0.6c-0.4-0.2-0.8-0.3-1.3-0.5l-1.3-0.5c-0.4-0.1-0.9-0.2-1.3-0.3
						c-0.4,0-0.9,0-1.3,0s-0.9,0.1-1.3,0.2c-0.4,0.1-0.9,0.2-1.3,0.3s-0.9,0.2-1.3,0.3s-0.9,0.2-1.4,0.1c-0.5,0-0.9-0.2-1.3-0.4
						s-0.8-0.6-1.1-0.9c-0.3-0.3-0.6-0.7-0.8-1.1c-0.3-0.3-0.6-0.7-0.9-1s-0.6-0.7-0.9-1l-0.9-1l-0.1-0.1l0.1-0.1
						c0.1-0.1,0.1-0.2,0.2-0.2c0.1-0.1,0.1-0.2,0.1-0.2s0-0.1,0,0l0,0l0,0h-0.1H64c0,0,0,0-0.1,0s-0.2,0.1-0.3,0.1
						c-0.1,0-0.2,0.1-0.3,0.1c-0.2,0.1-0.4,0.2-0.6,0.3c-0.8,0.4-1.5,0.9-2.2,1.4l0,0l0,0c-1.1,0.5-2.3,0.6-3.4,0.5
						c-1.2-0.1-2.3-0.4-3.4-0.8c-1.1-0.4-2.1-0.9-3.1-1.5c-0.5-0.3-1-0.6-1.5-0.9c-0.5-0.3-0.9-0.7-1.4-1l0,0l0,0l-0.1-0.2
						c0-0.1-0.1-0.1-0.1-0.2c-0.1-0.1-0.1-0.2-0.2-0.3s-0.1-0.2-0.1-0.4c0-0.1-0.1-0.2-0.1-0.4c-0.1-0.5-0.2-1-0.3-1.5
						c0-0.5-0.1-1-0.1-1.5s0-1,0.1-1.5l0.1,0.1c-0.1,0-0.2,0.1-0.3,0.1c-0.1,0-0.2,0.1-0.3,0.1c-0.2,0.1-0.4,0.2-0.5,0.3
						c-0.3,0.2-0.7,0.4-1,0.7h-0.1V135c-0.2-0.4-0.3-0.9-0.3-1.3c0-0.2,0-0.5,0.1-0.7c0-0.1,0.3-1.7,0.4-2.3
						c0.1-0.5,0.3-1.1,0.4-1.6c0.3-1.1,0.7-2.1,1.2-3.1s0.9-2,1.4-3s1-2,1.5-2.9c0.3-0.5,0.5-1,0.8-1.5s0.5-1,0.7-1.5
						c0.5-1,1.2-1.9,1.9-2.7c0.7-0.8,1.5-1.6,2.3-2.4C55.7,111.1,56.6,110.4,57.5,109.8L57.5,109.8z"/>
					<path class="st9" d="M30.6,125.7L30.6,125.7c0-0.1,0.1-0.2,0.1-0.2c0.1-0.2,0.2-0.4,0.4-0.6c0.2-0.2,0.5-0.5,0.9-0.7
						s0.9-0.4,1.4-0.6c0.5-0.2,1.1-0.3,1.7-0.5c0.6-0.1,1.3-0.2,2-0.3c0.4,0,0.7,0,1-0.1c0.3,0,0.7-0.1,1-0.2
						c0.3-0.1,0.6-0.3,0.8-0.5c0.2-0.3,0.4-0.6,0.6-0.9l0.2-0.2c0.1-0.1,0.1-0.2,0.2-0.2c0.1-0.1,0.3-0.3,0.4-0.4
						c0.3-0.3,0.6-0.5,1-0.6c0.7-0.3,1.4-0.5,2.1-0.6c0.7-0.2,1.3-0.3,1.9-0.6c0.3-0.1,0.5-0.3,0.7-0.5s0.3-0.5,0.5-0.7
						c0-0.1,0.1-0.1,0.1-0.2c0,0,0-0.1,0.1-0.1l0.1-0.1c0.1-0.1,0.2-0.2,0.3-0.3c0.2-0.1,0.4-0.3,0.6-0.3c0.4-0.2,0.8-0.3,1.1-0.4
						c0.3-0.1,0.6-0.1,0.7-0.2c0.2,0,0.3,0,0.3,0s-0.4,0.1-1,0.3c-0.3,0.1-0.7,0.2-1.1,0.4c-0.2,0.1-0.4,0.2-0.6,0.4
						c-0.1,0.1-0.2,0.2-0.3,0.2l-0.1,0.1l-0.1,0.1c0,0.1-0.1,0.1-0.1,0.2c-0.2,0.2-0.3,0.5-0.5,0.7s-0.5,0.4-0.8,0.6
						c-0.3,0.2-0.6,0.3-0.9,0.4c-0.2,0.1-0.3,0.1-0.5,0.1s-0.3,0.1-0.5,0.1c-0.7,0.2-1.4,0.4-2,0.6c-0.3,0.1-0.6,0.3-0.9,0.6
						c-0.1,0.1-0.2,0.2-0.4,0.4l-0.2,0.2l-0.2,0.2c-0.2,0.3-0.4,0.6-0.6,0.9c-0.1,0.1-0.3,0.3-0.4,0.4c-0.2,0.1-0.4,0.2-0.5,0.2
						c-0.4,0.1-0.7,0.1-1.1,0.2c-0.4,0-0.7,0-1.1,0c-1.4,0.1-2.6,0.3-3.7,0.6c-0.5,0.2-1,0.3-1.4,0.5s-0.7,0.4-1,0.6
						c-0.2,0.2-0.4,0.4-0.5,0.6C30.6,125.5,30.6,125.6,30.6,125.7L30.6,125.7z"/>
					<path class="st9" d="M60,113.4c0,0,0.1,8.7,1.3,13.2c0,0-1.8-6.3-1.9-8c0,0-0.4,11.5,2.2,14.9c0,0,1.3,2.7,2.6,3.5
						c1.3,0.8,2.3,2.1,3.3,3.2c1,1.2,1.6,1.4,3,1.7s3.8,1.9,5.3,2.7s2.4,0.9,3.7,1.3c1.3,0.5,4.3,1.9,4.9,3.3c0,0-2-2.2-4.8-3
						c-2.8-0.7-4-1.3-5.2-2.2s-3.2-1.7-4.4-1.9c-1.2-0.2-2.5-1.5-3.5-2.6c-1-1.2-2.4-2.1-3.3-2.9c-1-0.8-2.9-4.5-3.1-5.4
						c-0.3-0.9-1-6.2-1.1-7.1c-0.1-1-0.1-5,0.3-6.5s0.2-2.6,0.1-3.2c0-0.6,0-1.5,0-1.5L60,113.4z"/>
					<path class="st6" d="M67.1,72.1c-1.1-0.3-3.7-0.7-5-0.7c-2,0.1-4.2,0.4-5.6,1.3c-1.2,0.8-1.1,2.7,0.3,1.8
						c2.8-1.9,5.6-2.1,7.6-2.2C66.7,72.1,69.8,72.8,67.1,72.1z"/>
					<path class="st5" d="M90.1,88.9c0,0-0.2,1.3-1.4,3.5c-0.7,1.3-3,3.6-4,4.6s0.9,1.8,3.3,1.4c2.4-0.5,6.8-0.1,6.9-2.2
						c0.1-2.1-0.8-2.1-1.3-3.9C93.2,90.5,89.8,86,90.1,88.9z"/>
					<path class="st5" d="M78.3,88.5c0,0-1.7,4.6,2.2,4.4c4-0.2,2.7-3.5,2.6-4.3C82.9,87.9,80.5,84,78.3,88.5z"/>
					<path class="st5" d="M86.2,88c0,0-1.1,0-1.8,0.9c-0.6,0.9-1.3,1.6-0.4,1.9s2.6,0.1,3.2-0.2C88.5,89.8,88.2,87.9,86.2,88z"/>
					<path class="st5" d="M88.5,107.1c0,0-2.2,0.7-3,1.5s0.9,0.8,2.4,0C89.2,107.8,89.8,106.5,88.5,107.1z"/>
					<path class="st5" d="M82.1,109.4c0.1-0.1-2.4-0.9-3.6-0.4C77.3,109.3,81,111,82.1,109.4z"/>
					<path class="st5" d="M86.6,124.2c0,0-7.4,1.1-6.1-4.1c1.3-5.2,8.6,3.2,13.7-8.6c4.5-10.3,5.8-10.6,4.4-4.8
						C97.3,112.5,96.8,121.6,86.6,124.2z"/>
					<path class="st5" d="M82.5,87.2c0,0,0.5,2.3,2,1.5c1.4-0.7,2.7,0.9,2.7,0.9s-0.6,1.3-2,1.3c-1.4-0.1-1.5,0.2-2.4,1s-2,0-2,0
						C80.8,91.8,82.5,87.2,82.5,87.2z"/>
					<path class="st9" d="M71.9,75.3c0,0,0.3,0.2-0.5,1.1c-0.9,0.9-0.1,1-0.6,2.1S70.1,80,70.1,80s2.3-2.7,2.3-3.5s-0.7-2.3-1.5-2.2
						c0,0-0.9-0.3,0.1,0.3C71.5,74.8,71.9,75.2,71.9,75.3z"/>
					<path class="st5" d="M79.2,72.7c0,0-2.5,15.2-1.4,18.4c1.1,3.3,5.7,1.2,5.1-1.8c-0.5-3-2.1-14.5-2.1-14.5L79.2,72.7z"/>
					<path class="st5" d="M88.8,147.3c0,0,21.1-14.8,20.4-26.2c-0.8-11.5-2.4-3.4-5.5,0.1c-5.2,6-14.1,10.3-18.9,11.2
						c-4.8,0.9-4.4,3.6-1.1,7.6C87,144,85,151.1,88.8,147.3z"/>
					<path class="st3" d="M122,110.1c0,0,3.2,2.3,3.6,6.2c0.5,1.4,2-2.1,0.9-3.6C125.5,111.2,123.5,110.1,122,110.1z"/>
				</g>
			</g>
			<g>
				<defs>
					<circle id="SVGID_4_" cx="81" cy="78.4" r="68.7"/>
				</defs>
				<clipPath id="SVGID_5_">
					<use xlink:href="#SVGID_4_"  style="overflow:visible;"/>
				</clipPath>
				<path class="st16" d="M78.9,94.1"/>
			</g>
		</g>
	</g>
	<g>
		<path class="st17" d="M387.3,78.2c-0.2-1.4-0.4-2.8-0.7-4.1c-1.4-6.9-6.6-11.6-12.8-11.9c-7.7-0.3-12.6,3.4-14.7,10.8
			c-1.6,5.7-1.5,11.3,0.1,16.7c2.1,6.9,6.7,10.4,13.5,10.4h0.1c6.7,0,11.3-3.6,13.3-10.4C387.7,84.6,387.4,78.8,387.3,78.2z
			 M367,90.7c-1.5-4.4-2-11.8-0.2-18.8c0.7-2.9,2.9-4.5,5.7-4.5h0.2c2.8,0,4.6,1.4,5.7,4.2c2.4,6.3,1.8,13.3-0.1,19.1
			c-0.9,2.8-3,4.1-5.8,4.1l0,0C369.9,94.8,367.9,93.3,367,90.7z M372.8,99.3L372.8,99.3L372.8,99.3L372.8,99.3z"/>
		<polygon class="st17" points="166.3,99.5 173.8,99.5 173.8,78.2 186.9,78.2 186.9,72.7 173.9,72.7 173.9,58.7 188.5,58.7 
			188.5,53.1 166.3,53.1 		"/>
		<path class="st17" d="M254.7,46.9h-7.4v16h-0.2c-8.8-1.7-15.7,1.8-18.8,9.6c-2.5,6.3-2.4,12.7,0.1,18.8c2,4.8,5.8,7.8,11,8.5
			c1.3,0.2,2.6,0.3,3.9,0.3c3,0,5.9-0.5,8.7-1.5c1.9-0.7,2.7-1.8,2.6-3.8c-0.1-10.7,0-21.4,0-32.1L254.7,46.9z M246.6,94.4
			c-1.2,0.3-2.4,0.5-3.5,0.5l0,0c-2.6,0-6.1-0.9-7.8-5.4c-2-5.5-2-10.9,0-16.2c1.5-3.9,4.3-5.8,8.2-5.8c1.2,0,2.5,0.2,3.9,0.5v4.4
			c0,7.1,0,14.1-0.1,21.1C247.3,93.7,246.9,94.3,246.6,94.4z"/>
		<path class="st17" d="M215.8,64.5c-2.4-1.6-5.1-2.5-8-2.5c-6.1,0-11.7,4.1-13.8,10.1c-1.4,4.2-1.8,8.7-1,14
			c1.2,8.2,8.6,14.5,17.2,14.5l0,0c3.6,0,7.1-1.1,10-3.3l0.5-0.4l-1.9-4.6l-0.7,0.3c-6.3,2.7-11.9,2.3-15.1-0.9
			c-1.8-1.8-2.8-4.5-2.9-7.7l21.7-3.3c0,0,0-2.7-0.3-4.6C220.9,72.1,220.1,67.5,215.8,64.5z M214.9,77l-15.3,2.4
			c-0.1-3.7,0.7-6.6,2.4-9.2c1.3-1.9,3.2-2.9,5.5-2.9c2.7,0,5.3,1.9,6.4,4.7C214.9,74.4,214.8,76.6,214.9,77z"/>
		<path class="st17" d="M283.2,64.5c-2.4-1.6-5.1-2.5-8-2.5c-6.1,0-11.7,4.1-13.8,10.1c-1.4,4.2-1.8,8.7-1,14
			c1.2,8.2,8.6,14.5,17.2,14.5l0,0c3.6,0,7-1.1,9.9-3.3l0.5-0.4l-1.9-4.6l-0.7,0.3c-6.3,2.7-11.9,2.3-15.1-0.9
			c-1.8-1.8-2.8-4.5-2.9-7.7l21.7-3.3c0,0,0-2.7-0.3-4.6C288.3,72.1,287.5,67.5,283.2,64.5z M282.3,77L267,79.4
			c-0.1-3.7,0.7-6.6,2.4-9.2c1.3-1.9,3.2-2.9,5.5-2.9c2.7,0,5.3,1.9,6.4,4.7C282.3,74.4,282.2,76.6,282.3,77z"/>
		<path class="st17" d="M352.4,93c-2,0.9-3.9,1.4-5.4,1.4c-2.6,0-4.5-1.4-5.8-4.2c-2.9-6.2-2.9-12.5,0-18.5c1.6-3.4,4.2-4.6,7.9-3.9
			c0.7,0.1,1.4,0.4,2.2,0.8c0.4,0.2,0.7,0.3,1.1,0.4l0.6,0.2l0.3-0.5c1-1.6,1.6-2.8,1.2-3.8s-1.5-1.5-3.3-2
			c-5.7-1.9-11.9-0.1-15.5,4.5c-5.6,7.1-5.3,21.4,0.6,28.3c2.4,2.8,6.2,4.5,10.2,4.5c3,0,5.8-0.9,8-2.6l0.5-0.4l-1.8-4.5L352.4,93z"
			/>
		<path class="st17" d="M298.6,64c-1.6,0.6-2.2,1.5-2.2,3.1c0,7.2,0,14.4,0,21.6V97c0,0.4,0,0.7,0,1.1l0.1,1.2h7.2V73.1
			c0-5,0.5-5.5,2.8-5.5c0.8,0,1.8,0.1,3.5,0.3c0.1,0,0.3,0.1,0.5,0.1l1.1,0.3l1.7-5.8l-0.9-0.1C307.7,61.9,303,62.4,298.6,64z"/>
		<rect x="317.8" y="62.9" class="st17" width="7.1" height="36.6"/>
		<path class="st17" d="M321.3,49.7c-2.3,0-4.1,1.6-4.2,3.8c-0.1,2.2,1.7,4,4,4.1h0.2c2.2,0,4.1-1.8,4.1-3.8c0-1-0.3-2-1-2.7
			C323.7,50.2,322.6,49.8,321.3,49.7z M321.4,56.8L321.4,56.8L321.4,56.8L321.4,56.8z"/>
	</g>
	<g id="m08LLD.tif_9_">
		<g>
			<path class="st17" d="M237,24.9c0-2.5,0-4.9,0-7.3c0.5,0,1,0,1.5,0c0,0.3,0,0.6,0,1c0,6.7,0,13.4,0,20.2c0,0.8-0.2,1.1-0.9,1.4
				c-3,1.2-6.4,0.7-8.2-1.4c-1-1.2-1.5-2.6-1.7-4.2c-0.3-2.2-0.1-4.4,0.9-6.4c1.4-2.8,4.2-4.1,7.5-3.4
				C236.4,24.7,236.6,24.8,237,24.9z M237,26c-3.8-1.2-6.2,0.4-7.1,3c-0.8,2.3-0.8,4.6-0.2,6.8c0.9,3.2,3.5,4.6,6.7,3.6
				c0.3-0.1,0.7-0.5,0.7-0.8C237,34.4,237,30.2,237,26z"/>
			<path class="st17" d="M307.8,28.4c-0.4-1.1-0.9-2-1.6-2.7c-0.1-0.1-0.2-0.2-0.3-0.3c0,0-0.1,0-0.1-0.1c-0.6-0.5-1.4-0.8-2.2-0.9
				c0,0-0.1,0-0.2,0c-0.2,0-0.4-0.1-0.7-0.1l0,0l0,0c-0.2,0-0.5,0-0.7,0.1c-0.1,0-0.1,0-0.2,0c-0.9,0.1-1.6,0.4-2.2,0.9
				c0,0-0.1,0-0.1,0.1c-0.1,0.1-0.2,0.2-0.3,0.3c-0.7,0.6-1.3,1.5-1.6,2.7c-0.9,2.9-0.9,5.9,0.2,8.8c0.1,0.3,0.2,0.6,0.4,0.8
				c0.6,1.2,1.6,2,2.8,2.4c0.1,0,0.1,0,0.2,0.1c0.1,0,0.2,0,0.3,0.1c0.2,0,0.3,0.1,0.5,0.1c0.1,0,0.2,0,0.2,0c0.2,0,0.4,0,0.6,0l0,0
				l0,0c0.2,0,0.4,0,0.6,0c0.1,0,0.2,0,0.2,0c0.2,0,0.3-0.1,0.5-0.1c0.1,0,0.2,0,0.3-0.1c0.1,0,0.1,0,0.2-0.1
				c1.2-0.4,2.2-1.2,2.8-2.4c0.1-0.3,0.3-0.5,0.4-0.8C308.7,34.3,308.7,31.3,307.8,28.4z M302.6,39.6L302.6,39.6
				c-1.6,0-2.8-0.9-3.3-2.3c-1.2-3.1-1.2-6.2-0.1-9.4c0.6-1.5,1.7-2.4,3.4-2.5c1.7,0,2.8,0.9,3.4,2.5c1.2,3.1,1.1,6.3-0.1,9.4
				C305.4,38.7,304.3,39.6,302.6,39.6C302.7,39.6,302.7,39.6,302.6,39.6z"/>
			<path class="st17" d="M257.6,30.3c0-0.9,0-1.2,0-2.2c-0.2-2.3-2.8-3.4-7.4-1.6c-0.1-0.3-0.3-0.6-0.4-0.9c2.3-1.2,4.6-1.6,6.9-0.6
				c1.7,0.7,2.4,2.2,2.4,4c0.1,3.4,0,6.8,0,10.1c0,0.3-0.3,0.7-0.5,0.8c-2,0.9-4.1,1.1-6.2,0.6c-2-0.4-3.2-1.7-3.5-3.8
				c-0.2-2,0.6-3.5,2.3-4.6c1.8-1.1,3.8-1.4,5.9-1.7C257.2,30.3,257.4,30.3,257.6,30.3z M257.6,31.3c-2.2,0.2-4.2,0.5-5.9,1.8
				c-1.3,1-1.5,2.5-1.2,4c0.2,1.3,1.1,2.3,2.4,2.4s2.7-0.1,4.1-0.2c0.2,0,0.6-0.4,0.6-0.7C257.6,36.2,257.6,33.8,257.6,31.3z"/>
			<path class="st17" d="M185.9,24.7c0.6,0,1,0,1.6,0c0,0.6,0,1.1,0,1.6c0,3.2,0,6.4,0,9.5c0,2.6,1.3,3.8,3.8,3.7c0.1,0,0.1,0,0.2,0
				c2.7-0.1,2.9-0.3,2.9-2.9c0-3.6,0-7.2,0-10.8c0-0.4,0-0.7,0-1.1c0.5,0,1,0,1.6,0c0,0.3,0,0.6,0,1c0,4.3,0,8.6,0,13
				c0,0.8-0.3,1.1-0.9,1.3c-1.7,0.6-3.5,0.9-5.4,0.6c-2.2-0.3-3.7-1.8-3.8-4.1C185.8,32.6,185.9,28.7,185.9,24.7z"/>
			<path class="st17" d="M209,40.4c-0.6,0-1,0-1.6,0c0-0.5,0-0.9,0-1.3c0-4.2,0-8.4,0-12.7c0-0.7,0.2-1.1,0.9-1.3
				c2.2-0.7,4.5-1,6.7-0.3c1.5,0.5,2.6,1.6,2.6,3.1c0.1,4.1,0,8.2,0,12.4c-0.4,0-0.8,0-1.4,0c0-0.3,0-0.7,0-1.1c0-3.1,0-6.3,0-9.4
				c0-0.4,0-0.8-0.1-1.2c-0.3-2.2-1.3-3.1-3.5-3.2c-0.9,0-1.8,0.2-2.7,0.3c-0.8,0.1-1,0.5-1,1.3c0,4.1,0,8.2,0,12.3
				C209,39.6,209,40,209,40.4z"/>
			<path class="st17" d="M318.3,40.4c-0.6,0-1,0-1.6,0c0-0.5,0-0.9,0-1.3c0-4.3,0-8.5,0-12.8c0-0.7,0.2-1,0.8-1.2
				c2.3-0.8,4.5-1.1,6.8-0.3c1.5,0.5,2.6,1.6,2.6,3.1c0.1,4.1,0,8.2,0,12.4c-0.4,0-0.8,0-1.4,0c0-0.3,0-0.7,0-1c0-3.1,0-6.3,0-9.4
				c0-0.4,0-0.8-0.1-1.2c-0.3-2.2-1.3-3.1-3.5-3.2c-0.9,0-1.8,0.2-2.7,0.3c-0.8,0.1-1,0.5-1,1.3c0,4.1,0,8.2,0,12.4
				C318.3,39.7,318.3,40,318.3,40.4z"/>
			<path class="st17" d="M174.6,29.4c0,0.5,0,0.7,0,1.1c-2.1,0-4.2,0-6.4,0c0,3.3,0,6.6,0,9.9c-0.6,0-1.1,0-1.6,0
				c0-6.6,0-13.2,0-19.9c2.9,0,5.7,0,8.6,0c0,0.3,0,0.6,0.1,1.1c-2.4,0-4.7,0-7.1,0c0,2.7,0,5.2,0,7.9
				C170.3,29.4,172.4,29.4,174.6,29.4z"/>
			<path class="st17" d="M277.2,26.2c-0.7-0.2-1.4-0.5-2.1-0.6c-1.8-0.3-3.2,0.4-3.9,2c-1.5,3.2-1.5,6.5,0,9.7
				c1.1,2.2,3.1,2.6,5.9,1.4c0.2,0.3,0.3,0.6,0.4,0.9c-2.4,1.8-5.7,1.2-7.5-1.2c-2.1-3-2.2-8.8-0.1-11.8c1.5-2.2,4.4-2.9,6.8-1.8
				C277.6,25.3,277.7,25.7,277.2,26.2z"/>
			<path class="st17" d="M286.1,24.7c0.5,0,1,0,1.5,0c0,5.2,0,10.4,0,15.7c-0.5,0-0.9,0-1.5,0C286.1,35.2,286.1,30,286.1,24.7z"/>
			<path class="st17" d="M305.7,19.1c-1.2,2.1-3,3.9-3.9,3.7c0.7-1.2,1.3-2.4,2-3.6C304.3,18.5,304.9,18.5,305.7,19.1z"/>
		</g>
		<circle class="st17" cx="286.8" cy="20.3" r="1.1"/>
	</g>
	<g>
		<g>
			<path class="st17" d="M384.9,131.7c-0.8,0-1.6,0-2.4,0c0-8.1,0-16.1,0-24.2c0.8,0,1.6,0,2.4,0
				C384.9,115.6,384.9,123.6,384.9,131.7z"/>
			<path class="st17" d="M173.7,122c2.7,2.9,4.3,6.4,6.6,9.7c-1.1,0-2.1,0-3,0c-0.2,0-0.4-0.3-0.6-0.5c-1.2-2.1-2.5-4.2-3.7-6.3
				c-0.7-1.2-1.5-2.2-2.9-2.7c-0.1,0-0.3-0.1-0.5-0.1c0,3.3,0,6.4,0,9.7c-0.9,0-1.8,0-2.8,0c0-0.2,0-0.5,0-0.7c0-6.3,0-12.7,0-19
				c0-0.3,0.1-0.7,0.3-0.8c3-1.2,6-1.5,9-0.3c2.1,0.8,3.1,2.5,3.3,4.7c0.2,2.1-0.6,3.8-2.4,5c-0.9,0.6-1.9,0.9-2.9,1.3
				C174.1,121.9,173.9,122,173.7,122z M169.6,120.8c0.6,0,1.2,0.1,1.8,0.1c3,0.1,5.1-1.5,5.4-4.3c0.2-2.1-0.6-3.9-2.6-4.5
				c-1.3-0.4-2.7-0.3-4,0c-0.4,0.1-0.5,0.3-0.5,0.7c0,2,0,4,0,6C169.6,119.5,169.6,120.1,169.6,120.8z"/>
			<path class="st17" d="M250,131.6c0,2.3,0,4.5,0,6.7c-0.9,0-1.7,0-2.7,0c0-0.3,0-0.5,0-0.8c0-7,0-13.9,0-20.9
				c0-0.6,0.2-0.9,0.7-1.1c2-0.8,4.2-1.1,6.3-0.6c2.5,0.5,4.2,2.1,5,4.6c0.8,2.6,0.8,5.2-0.1,7.8c-1.4,3.9-4.6,5.1-8.2,4.5
				C250.7,131.7,250.4,131.7,250,131.6z M250,123.3c0,2,0,4,0,6c0,0.2,0.2,0.6,0.4,0.7c2.4,0.6,5,0.1,6.1-2.8
				c0.8-2.2,0.8-4.6,0.4-6.8c-0.7-3.2-2.9-4.5-6.1-3.7c-0.5,0.1-0.8,0.3-0.7,0.9C250,119.4,250,121.4,250,123.3z"/>
			<path class="st17" d="M270,114.8c-3.7,0-6.6,1.9-6.6,8.6c0,6.7,2.9,8.6,6.6,8.6s6.4-1.9,6.4-8.6S273.7,114.8,270,114.8z
				 M273.1,128c-0.6,1.4-1.5,2.2-3.1,2.2s-2.5-0.9-3.1-2.2c-0.8-2-0.9-4-0.7-6.1c0.1-1,0.3-2.1,0.7-3.1c0.5-1.4,1.5-2.3,3.1-2.3
				c1.4,0,2.5,0.8,3.1,2.2c0.2,0.6,0.4,1.1,0.5,1.7c0.1,0.9,0.3,1.7,0.3,2.9C273.9,125,273.7,126.5,273.1,128z"/>
			<path class="st17" d="M195.3,122.9c-3.5,0.5-7.1,1-10.5,1.6c0.3,3.3,2,6.2,6.3,5.5c1-0.1,1.9-0.5,2.9-0.8c0.2,0.5,0.4,1,0.6,1.6
				c-2,1-4,1.3-6.1,1.1c-4.1-0.5-5.9-3.6-6.3-7c-0.2-2.2-0.1-4.3,0.8-6.4c2.1-5,8.3-4.6,10.5-1.9c1,1.2,1.4,2.6,1.6,4.1
				C195.3,121.4,195.3,122.1,195.3,122.9z M184.7,123c2.7-0.4,5.3-0.8,8.1-1.3c-0.2-1.2-0.3-2.1-0.8-3.1c-0.6-1.4-1.5-2.1-2.9-2.2
				c-1.3-0.1-2.4,0.4-3.2,1.5C184.9,119.4,184.7,121.1,184.7,123z"/>
			<path class="st17" d="M352,120.9c-0.1-0.7,0-1.4-0.2-2.1c-0.3-1.4-1.3-2.1-3-2.2c-1.6-0.1-3.1,0.4-4.5,1c-0.1,0-0.1-0.1-0.1-0.1
				c-0.7-1.6-0.7-1.7,1.1-2.2c1.9-0.6,3.8-0.8,5.7-0.2c2,0.5,3.4,2.2,3.5,4.3c0.1,3.7,0,7.4,0,11.1c0,0.2-0.2,0.5-0.4,0.6
				c-2.7,1.1-5.5,1.4-8.3,0.5c-1.8-0.6-2.9-1.9-3.1-3.9c-0.2-1.9,0.4-3.4,1.9-4.6c1.7-1.2,3.6-1.7,5.6-2
				C350.8,121,351.3,121,352,120.9z M352,122.4c-1.7,0.1-3.7,0.6-4.9,1.3c-1.3,0.8-1.9,1.9-1.8,3.4c0.1,1.3,0.5,2.4,1.8,2.9
				c1.5,0.6,3,0.6,4.5,0.1c0.2-0.1,0.5-0.4,0.5-0.5C352,127.1,352,124.8,352,122.4z"/>
			<path class="st17" d="M375.7,120.9c-0.1-0.7,0-1.4-0.2-2.1c-0.3-1.4-1.3-2.1-3-2.2c-1.6-0.1-3.1,0.4-4.5,1
				c-0.1,0-0.1-0.1-0.1-0.1c-0.7-1.6-0.7-1.7,1.1-2.2c1.9-0.6,3.8-0.8,5.7-0.2c2,0.5,3.4,2.2,3.5,4.3c0.1,3.7,0,7.4,0,11.1
				c0,0.2-0.2,0.5-0.4,0.6c-2.7,1.1-5.5,1.4-8.3,0.5c-1.8-0.6-2.9-1.9-3.1-3.9c-0.2-1.9,0.4-3.4,1.9-4.6c1.7-1.2,3.6-1.7,5.6-2
				C374.5,121,375,121,375.7,120.9z M375.6,122.4c-1.7,0.1-3.7,0.6-4.9,1.3c-1.3,0.8-1.9,1.9-1.8,3.4c0.1,1.3,0.5,2.4,1.8,2.9
				c1.5,0.6,3,0.6,4.5,0.1c0.2-0.1,0.5-0.4,0.5-0.5C375.7,127.1,375.6,124.8,375.6,122.4z"/>
			<path class="st17" d="M299.2,129c0.2,0.6,0.5,1.2,0.7,1.8c-1.6,1.1-3.4,1.4-5.2,1.1c-2.4-0.3-4.2-1.7-5.2-3.8
				c-2.4-4.8-2.4-9.7,0.2-14.4c2.1-4,6.9-4.3,9.9-2.7c0.1,0.1,0.3,0.2,0.4,0.3c-0.2,0.6-0.5,1.1-0.6,1.6c-0.9-0.3-1.8-0.6-2.6-0.7
				c-2-0.2-3.4,0.7-4.4,2.4c-0.8,1.3-1.2,2.8-1.3,4.3c-0.3,2.6-0.2,5.1,0.8,7.6c1.3,3.3,4,4.3,7.1,2.7
				C299,129.1,299.1,129.1,299.2,129z"/>
			<path class="st17" d="M340.9,115.1c-1.8,5.6-3.7,11.1-5.5,16.6c-0.7,0-1.4,0-2.1,0c-0.2,0-0.5-0.4-0.6-0.6
				c-1.6-4.7-3.1-9.4-4.7-14.1c-0.2-0.6-0.4-1.2-0.6-1.9c0.9,0,1.7,0,2.5,0c0.2,0,0.4,0.2,0.5,0.4c1.2,4.1,2.4,8.2,3.5,12.3
				c0.1,0.3,0.1,0.6,0.2,1.1c0.3-1.2,0.6-2.3,1-3.4c1-3.3,2-6.6,3-9.9c0.1-0.4,0.3-0.5,0.7-0.5C339.5,115.1,340.2,115.1,340.9,115.1
				z"/>
			<path class="st17" d="M198.1,130.9c0.3-0.7,0.5-1.2,0.8-1.8c1.2,0.7,2.5,1,3.9,0.9c1.3-0.1,2.4-0.9,2.7-2.1
				c0.3-1.2-0.1-2.4-1.2-3.1c-0.9-0.5-1.8-0.9-2.8-1.4c-1.1-0.6-2.2-1.3-2.7-2.5c-0.9-2.4,0.2-4.9,2.6-5.8c2.2-0.8,4.3-0.5,6.4,0.7
				c-0.2,0.6-0.5,1.2-0.7,1.5c-1.1-0.5-1.8-0.9-2.9-1c-1.5-0.1-2.6,0.8-2.9,1.8c-0.4,1.2,0,2.4,1.2,3c0.9,0.5,1.8,0.9,2.7,1.3
				c1.3,0.6,2.4,1.4,2.8,2.9c0.7,2.3-0.2,4.7-2.4,5.8C203.2,132.5,200.7,132.1,198.1,130.9z"/>
			<path class="st17" d="M218.3,129.9c0.1,1.8,0.5,1.9-1.7,1.9c-2.2,0-3.8-1.4-3.8-3.7c-0.1-3.5,0-7,0-10.4c0-0.3,0-0.6,0-1
				c-0.6,0-1.2,0-1.9,0c0-0.6,0-1.1,0-1.7c0.6,0,1.2,0,1.9,0c0-1.1,0-1.8,0-3c0-0.4,0-0.9,0.6-1c0.7-0.2,1.4-0.4,2.1-0.6
				c0,1.6,0,3.1,0,4.6c1,0,1.9,0,2.9,0c0,0.6,0,1.1,0,1.7c-0.9,0-1.9,0-2.9,0c0,1.3,0,7.3,0,10.8c0,0.4,0,0.8,0.1,1.2
				C215.9,129.7,216.6,130,218.3,129.9z"/>
			<path class="st17" d="M359.5,115.1c0.9,0,2.7,0,2.7,0s0.1,10.8-0.1,15.9c-0.1,3.3-1.6,5.9-4.8,7.2c-0.2,0.1-0.5,0.2-0.8,0.3
				c0-0.5,0-1,0-1.5c0-0.2,0.2-0.5,0.4-0.6c1.8-1.2,2.6-3,2.6-5c0.1-4.8,0.1-9.6,0.1-14.4C359.5,116.4,359.5,115.8,359.5,115.1z"/>
			<path class="st17" d="M325.9,114.8c-0.2,0.7-0.4,1.4-0.6,1.9c-1,0-2,0-3,0c-0.6,0-0.9,0.3-0.9,1c0,4.3,0,8.6,0,12.9
				c0,0.3,0,0.6,0,1c-0.9,0-1.7,0-2.7,0c0-0.3,0-0.5,0-0.8c0-4.7,0-9.4,0-14.1c0-0.6,0.2-0.9,0.8-1.1
				C321.6,114.8,323.6,114.6,325.9,114.8z"/>
			<path class="st17" d="M224.3,131.7c-0.9,0-1.8,0-2.7,0c0-0.3,0-0.5,0-0.8c0-4.7,0-9.5,0-14.2c0-0.6,0.2-0.9,0.8-1.1
				c2-0.8,4.1-0.9,6.4-0.8c-0.2,0.7-0.4,1.4-0.5,1.9c-1,0-2,0-2.9,0c-0.7,0-1,0.3-1,1.1c0,4.3,0,8.6,0,12.8
				C224.3,131,224.3,131.3,224.3,131.7z"/>
			<path class="st17" d="M362.5,110.3c0,0.9-0.7,1.5-1.6,1.5s-1.6-0.6-1.6-1.5c0-0.8,0.7-1.5,1.6-1.5
				C361.8,108.9,362.5,109.5,362.5,110.3z"/>
		</g>
		<path class="st17" d="M243.6,122.9c-3.5,0.5-7.1,1-10.5,1.6c0.3,3.3,2,6.2,6.3,5.5c1-0.1,1.9-0.5,2.9-0.8c0.2,0.5,0.4,1,0.6,1.6
			c-2,1-4,1.3-6.1,1.1c-4.1-0.5-5.9-3.6-6.3-7c-0.2-2.2-0.1-4.3,0.8-6.4c2.1-5,8.3-4.6,10.5-1.9c1,1.2,1.4,2.6,1.6,4.1
			C243.5,121.4,243.5,122.1,243.6,122.9z M233,123c2.7-0.4,5.3-0.8,8.1-1.3c-0.2-1.2-0.3-2.1-0.8-3.1c-0.6-1.4-1.5-2.1-2.9-2.2
			c-1.3-0.1-2.4,0.4-3.2,1.5C233.1,119.4,232.9,121.1,233,123z"/>
		<path class="st17" d="M311.9,120.9c-0.1-0.7,0-1.4-0.2-2.1c-0.3-1.4-1.3-2.1-3-2.2c-1.6-0.1-3.1,0.4-4.5,1c-0.1,0-0.1-0.1-0.1-0.1
			c-0.7-1.6-0.7-1.7,1.1-2.2c1.9-0.6,3.8-0.8,5.7-0.2c2,0.5,3.4,2.2,3.5,4.3c0.1,3.7,0,7.4,0,11.1c0,0.2-0.2,0.5-0.4,0.6
			c-2.7,1.1-5.5,1.4-8.3,0.5c-1.8-0.6-2.9-1.9-3.1-3.9c-0.2-1.9,0.4-3.4,1.9-4.6c1.7-1.2,3.6-1.7,5.6-2
			C310.6,121,311.2,121,311.9,120.9z M311.8,122.4c-1.7,0.1-3.7,0.6-4.9,1.3c-1.3,0.8-1.9,1.9-1.8,3.4c0.1,1.3,0.5,2.4,1.8,2.9
			c1.5,0.6,3,0.6,4.5,0.1c0.2-0.1,0.5-0.4,0.5-0.5C311.8,127.1,311.8,124.8,311.8,122.4z"/>
	</g>
	<g>
		<path class="st17" d="M124.1,137.1c0.8,0,1.5,0.2,2.3,0.6c0.7,0.4,1.3,1,1.7,1.7s0.6,1.5,0.6,2.3s-0.2,1.6-0.6,2.3
			c-0.4,0.7-1,1.3-1.7,1.7s-1.5,0.6-2.3,0.6s-1.6-0.2-2.3-0.6c-0.7-0.4-1.3-1-1.7-1.7s-0.6-1.5-0.6-2.3s0.2-1.6,0.6-2.3
			c0.4-0.7,1-1.3,1.7-1.7C122.6,137.3,123.4,137.1,124.1,137.1z M124.1,137.9c-0.7,0-1.3,0.2-1.9,0.5c-0.6,0.3-1.1,0.8-1.5,1.4
			c-0.4,0.6-0.5,1.3-0.5,1.9c0,0.7,0.2,1.3,0.5,1.9c0.3,0.6,0.8,1.1,1.4,1.4c0.6,0.3,1.3,0.5,1.9,0.5c0.7,0,1.3-0.2,1.9-0.5
			c0.6-0.3,1.1-0.8,1.4-1.4c0.3-0.6,0.5-1.3,0.5-1.9c0-0.7-0.2-1.3-0.5-1.9c-0.3-0.6-0.8-1.1-1.5-1.4
			C125.4,138,124.8,137.9,124.1,137.9z M122.1,144.3v-5h1.7c0.6,0,1,0,1.3,0.1s0.5,0.3,0.6,0.5c0.2,0.2,0.2,0.5,0.2,0.7
			c0,0.4-0.1,0.7-0.4,1c-0.3,0.3-0.6,0.4-1,0.5c0.2,0.1,0.3,0.2,0.4,0.3c0.2,0.2,0.4,0.5,0.7,1l0.6,1h-1l-0.4-0.8
			c-0.3-0.6-0.6-1-0.8-1.2c-0.2-0.1-0.4-0.2-0.6-0.2h-0.5v2.1L122.1,144.3L122.1,144.3z M122.9,141.5h1c0.5,0,0.8-0.1,1-0.2
			c0.2-0.1,0.3-0.3,0.3-0.6c0-0.1,0-0.3-0.1-0.4c-0.1-0.1-0.2-0.2-0.3-0.3s-0.4-0.1-0.8-0.1h-0.9v1.6H122.9z"/>
	</g>
</g>
</svg>
